<?xml version="1.0" standalone="no"?>
<!DOCTYPE svg PUBLIC "-//W3C//DTD SVG 1.1//EN" "http://www.w3.org/Graphics/SVG/1.1/DTD/svg11.dtd">
<svg xmlns="http://www.w3.org/2000/svg">
<metadata>Copyright (C) 2020 by original authors @ fontello.com</metadata>
<defs>
<font id="outputiconlibrarynov302020" horiz-adv-x="1000" >
<font-face font-family="outputiconlibrarynov302020" font-weight="400" font-stretch="normal" units-per-em="1000" ascent="850" descent="-150" />
<missing-glyph horiz-adv-x="1000" />
<glyph glyph-name="add-image-o" unicode="&#xe800;" d="M819 238v-107h106v-71h-106v-106h-71v106h-106v71h106v107h71z m0 425c19 0 35-16 35-36v-319h-71v284h-566v-496l354 354 106-106v-100l-106 106-254-254h254v-71h-390c-9 0-18 4-25 10-6 7-10 16-10 25v567c0 10 4 19 10 25 7 7 16 10 25 11h638z m-461-142c19 0 37-8 50-21 14-13 21-31 21-50 0-19-7-37-21-50-13-13-31-21-50-21-18 0-36 8-50 21-13 13-20 31-20 50 0 19 7 37 20 50 14 13 32 21 50 21z" horiz-adv-x="1000" />

<glyph glyph-name="add-image" unicode="&#xe801;" d="M819 238v-107h106v-71h-106v-106h-71v106h-106v71h106v107h71z m0 425c19 0 35-16 35-36v-331c-23 8-46 12-71 12v284h-566l0-496 329 329c6 6 14 10 23 10 8 1 17-2 24-7l3-3 125-126c-27-8-52-22-74-40-22-19-40-42-53-67-13-26-21-54-23-83-2-28 2-57 12-84l-402 0c-9 0-18 4-25 10-6 7-10 16-10 25v567c0 10 4 19 10 25 7 7 16 10 25 11h638z m-461-142c19 0 37-8 50-21 14-13 21-31 21-50 0-19-7-37-21-50-13-13-31-21-50-21-18 0-36 8-50 21-13 13-20 31-20 50 0 19 7 37 20 50 14 13 32 21 50 21z" horiz-adv-x="1000" />

<glyph glyph-name="alert" unicode="&#xe802;" d="M531 686l339-594c3-6 5-12 5-18 0-7-2-13-5-18-3-6-7-10-13-14-5-3-11-4-18-4h-678c-7 0-13 1-18 4-6 4-10 8-13 14-3 5-5 11-5 18 0 6 2 12 5 18l339 594c3 6 8 10 13 13 6 4 12 5 18 5 6 0 12-1 18-5 5-3 10-7 13-13z m-67-468v-72h72v72h-72z m0 252v-180h72v180h-72z" horiz-adv-x="1000" />

<glyph glyph-name="alert-o" unicode="&#xe803;" d="M531 686l339-594c3-6 5-12 5-18 0-7-2-13-5-18-3-6-7-10-13-14-5-3-11-4-18-4h-678c-7 0-13 1-18 4-6 4-10 8-13 14-3 5-5 11-5 18 0 6 2 12 5 18l339 594c3 6 8 10 13 13 6 4 12 5 18 5 6 0 12-1 18-5 5-3 10-7 13-13z m-309-576h556l-278 486-278-486z m242 108h72v-72h-72v72z m0 252h72v-180h-72v180z" horiz-adv-x="1000" />

<glyph glyph-name="arrow-down" unicode="&#xe804;" d="M221 484c16 16 42 16 59 0l220-221 221 221c16 16 42 16 59 0 16-17 16-43 0-59l-242-241c-21-22-55-22-76 0l-241 241c-17 16-17 42 0 59z" horiz-adv-x="1000" />

<glyph glyph-name="arrow-left" unicode="&#xe805;" d="M634 630c16-17 16-43 0-59l-221-221 221-220c16-17 16-43 0-59-17-17-43-17-59 0l-241 241c-22 21-22 55 0 76l241 242c16 16 42 16 59 0z" horiz-adv-x="1000" />

<glyph glyph-name="arrow-o-bottom" unicode="&#xe806;" d="M338 220c-12 17 1 41 23 41l278 0c22 0 35-24 23-41l-139-192c-11-15-34-15-45 0l-140 192z m135 463l0-422 54 0 0 422-54 0z" horiz-adv-x="1000" />

<glyph glyph-name="arrow-o-left" unicode="&#xe807;" d="M370 512c17 12 41-1 41-23v-278c0-22-24-35-41-23l-192 140c-15 11-15 34 0 45l192 139z m463-135h-422v-54h422v54z" horiz-adv-x="1000" />

<glyph glyph-name="arrow-o-right" unicode="&#xe808;" d="M631 188c-18-12-42 1-42 23l0 278c0 22 24 35 42 23l191-139c15-11 15-34 0-45l-191-140z m-464 135l422 0 0 54-422 0 0-54z" horiz-adv-x="1000" />

<glyph glyph-name="arrow-o-top" unicode="&#xe809;" d="M662 481c12-18-1-42-23-42l-278 0c-22 0-35 24-23 42l140 191c11 15 34 15 45 0l139-191z m-135-464l0 422-54 0 0-422 54 0z" horiz-adv-x="1000" />

<glyph glyph-name="arrow-right" unicode="&#xe80a;" d="M366 71c-16 16-16 42 0 59l221 220-221 221c-16 16-16 42 0 59 17 16 43 16 59 0l242-242c21-21 21-55 0-76l-242-241c-16-17-42-17-59 0z" horiz-adv-x="1000" />

<glyph glyph-name="arrow-up" unicode="&#xe80b;" d="M780 180c-17-16-43-16-59 0l-221 220-220-220c-17-16-43-16-59 0-17 16-17 43 0 59l241 241c21 21 55 21 76 0l242-241c16-16 16-43 0-59z" horiz-adv-x="1000" />

<glyph glyph-name="bag-o" unicode="&#xe80c;" d="M292 600v10c0 112 96 198 208 198 113 0 208-86 208-198v-10h125c23 0 42-19 42-42v-583c0-23-19-42-42-42h-666c-23 0-42 19-42 42v583c0 23 19 42 42 42h125z m83 10v-10h250v10c0 61-53 115-125 115-72 0-125-54-125-115z m-167-93v-500h584v500h-584z" horiz-adv-x="1000" />

<glyph glyph-name="bookmark-o" unicode="&#xe80d;" d="M250 586c0 54 43 97 96 97h308c53 0 96-43 96-97v-468c0-15-9-29-22-35-13-6-29-5-41 5l-187 155-187-155c-12-10-28-11-41-5-13 6-22 20-22 35v468z m96 19c-10 0-19-8-19-19v-386l149 124c14 12 34 12 48 0l149-124v386c0 11-8 19-19 19h-308z" horiz-adv-x="1000" />

<glyph glyph-name="bookmark" unicode="&#xe80e;" d="M250 600c0 46 37 83 83 83h334c46 0 83-37 83-83v-486c0-37-44-55-70-30l-151 143c-16 16-42 16-58 0l-151-143c-26-25-70-7-70 30v486z" horiz-adv-x="1000" />

<glyph glyph-name="browse-o" unicode="&#xe80f;" d="M198 590c0 46 37 83 83 83h98c46 0 83-37 83-83v-98c0-46-37-83-83-83h-98c-46 0-83 37-83 83v98z m83 10c-5 0-10-5-10-10v-98c0-6 5-10 10-10h98c6 0 10 4 10 10v98c0 5-4 10-10 10h-98z m257-10c0 46 37 83 83 83h98c46 0 83-37 83-83v-98c0-46-37-83-83-83h-98c-46 0-83 37-83 83v98z m83 10c-6 0-10-5-10-10v-98c0-6 4-10 10-10h98c6 0 10 4 10 10v98c0 5-4 10-10 10h-98z m-340-267c-46 0-83-37-83-83v-98c0-46 37-83 83-83h98c46 0 83 37 83 83v98c0 46-37 83-83 83h-98z m98-73c6 0 10-4 10-10v-98c0-6-4-10-10-10h-98c-5 0-10 4-10 10v98c0 6 5 10 10 10h98z m322-249c22 0 44 5 64 13 1-1 2-2 3-3l91-91c16-17 42-17 59 0 16 16 16 43 0 59l-88 88c19 26 30 58 30 93 0 89-71 160-159 160-89 0-160-71-160-160 0-88 71-159 160-159z m0 63c-54 0-97 43-97 96 0 54 43 97 97 97 53 0 96-43 96-97 0-53-43-96-96-96z" horiz-adv-x="1000" />

<glyph glyph-name="browse" unicode="&#xe810;" d="M281 673c-46 0-83-37-83-83v-98c0-46 37-83 83-83h98c46 0 83 37 83 83v98c0 46-37 83-83 83h-98z m340 0c-46 0-83-37-83-83v-98c0-37 24-68 57-79 29 10 60 16 93 16 25 0 49-3 72-10 25 15 42 42 42 73v98c0 46-37 83-83 83h-98z m-242-340c31 0 58-17 72-42-22-39-34-84-34-133 0-25 3-50 10-74-14-10-30-15-48-15h-98c-46 0-83 37-83 83v98c0 46 37 83 83 83h98z m301-334c24 0 47 5 68 14 1-1 2-2 3-4l97-96c17-18 45-18 63 0 17 17 17 45 0 62l-94 94c20 28 32 62 32 99 0 94-76 170-169 170-94 0-170-76-170-170 0-93 76-169 170-169z m0 67c-57 0-103 46-103 102 0 57 46 103 103 103 57 0 103-46 103-103 0-56-46-102-103-102z" horiz-adv-x="1000" />

<glyph glyph-name="calendar" unicode="&#xe811;" d="M292 683h83v-83h250v83h83v-83c46 0 84-37 84-83v-42h-584v42c0 46 38 83 84 83v83z m500-291h-584v-250c0-46 38-84 84-84h416c46 0 84 38 84 84v250z" horiz-adv-x="1000" />

<glyph glyph-name="cc-amex" unicode="&#xe812;" d="M559 490c0 26-22 29-43 29l-63 1v-110h26v40h29c29 0 23-17 24-40h26v21c0 15-2 24-17 29 11 5 18 17 18 30z m-47-18h-33v25h34c8 0 17-2 17-12 0-11-9-13-18-13z m-26-142h-84l-33-36-33 36h-106l0-110h104l34 36 32-36h52l0 37c30 0 78-8 78 37 0 27-19 36-44 36z m-165-87h-65v22h58v22h-58v20h66l29-32-30-32z m104-13l-40 44 40 44v-88z m60 49h-33v28h34c9 0 16-4 16-13 0-11-7-15-17-15z m-50 218v23h-88v-110h88v22h-62v22h60v23h-60v20h62z m523-146h0 0z m-309-51c0 26-23 30-43 30h-63l0-110h26l0 40h28c18 0 24-3 24-22l0-18h26l0 21c0 15-3 25-17 30 12 5 19 17 19 29z m-47-18h-33v25h34c8 0 17-2 17-12 0-11-9-13-18-13z m-275 128v110h-44l-31-75-34 75h-43v-105l-45 105h-39l-47-110h28l10 24h55l10-24h54v86l38-86h23l39 86v-86h26z m-235 47l17 44 19-44h-36z m759-253v7c-17-9-6-7-249-7 0 40 0 38 0 40-3 0-5 0-15 0 0-28 0-11 0-40h-63c0 19 0 24 0 46-16-9-36-10-55-9 0-24 0-14 0-37h-78c-8 9-4 5-24 28-5-6-21-23-26-28h-130v147h132c8-9 4-5 25-28 5 6 19 22 25 28h92c15 0 28-3 39-9v9c86 0 102 2 120-8v8h124v-8c18 11 31 8 104 8v-8c16 9 26 8 86 8v279c0 42-34 76-76 76h-764c-42 0-76-34-76-76v-175c15 35 31 73 36 86h64c6-16 2-6 14-34v34h73c5-10 18-38 22-48 9 22 16 38 20 48h164c0 0 18 0 19 0 69 0 85 1 102-8v8h63v-15c13 10 29 15 49 15h44c0-1 3-1 4-1h51c7-15 4-9 14-32v32h69c8-12-1 3 18-29v29h64v-146h-67c-8 14-2 4-21 35v-35h-84c-10 24 0 1-10 24h-30c-7-15-4-8-11-24h-42c-20 0-36 5-47 14v-14h-106c-1 22 0 40 0 40-3 0-6 0-16 0v-40h-215v18c-4-9-5-9-9-18h-47c-6 14-4 10-8 18v-18h-84c-6 16-3 8-10 24h-30c-7-16-4-8-11-24h-42v-324c0-42 34-77 76-77h764c42 0 76 35 76 77v144c-20-14-52-10-107-10z m58 103h48v23h-53c-20 0-38-11-38-33 0-53 68-21 68-44 0-8-6-10-13-10h-51l0-23h51c13 0 28 2 36 14v41c-17 22-63 2-63 21 0 9 7 11 15 11z m-91-64h-51l0-23h51c23 0 42 9 42 35 0 53-69 18-69 42 0 8 8 10 15 10h48v23h-52c-21 0-38-11-38-33 0-53 68-20 68-44 0-8-7-10-14-10z m-67 64v23h-88l0-110h88l0 22-61 1v22h60v22h-60v20h61z m-90 172c0 0-2-3-2-12 0-10 2-12 2-13 0 0 2 0 5 0l12 26c-2 0-3 1-5 1-9 0-11-1-12-2z m33 17h0 0z m-26 24c-37 0-54-19-54-56 0-36 16-54 53-54h30l10 24h55l10-24h54v82l50-82h37v109h-27v-76l-46 76h-40v-104l-45 104h-39l-38-86h-11c-21 0-26 13-26 31 0 38 25 32 53 32v24h-26z m67-19l18-44h-36l18 44z m-161 19v-110h27v110h-27z" horiz-adv-x="1000" />

<glyph glyph-name="cc-discover" unicode="&#xe813;" d="M870 445c0 13-9 19-25 19h-8v-39h8c16 0 25 7 25 20z m12 261h-764c-42 0-76-34-76-76v-560c0-42 34-77 76-77h764c42 0 76 35 76 77v560c0 42-34 76-76 76z m-70-221c36 0 84 7 84-39 0-20-11-33-30-36l41-55h-31l-35 52h-4v-52h-25v130z m-89 0h72v-22h-47v-29h45v-22h-45v-35h47v-22h-72v130z m-109 0l34-88 36 88h28l-57-134h-14l-55 134h28z m-89 5c39 0 71-32 71-71 0-39-32-71-71-71-40 0-71 32-71 71 0 39 31 71 71 71z m-79-10v-30c-32 32-74 7-74-30 0-40 43-62 74-31v-30c-47-23-101 9-101 61 0 49 53 84 101 60z m-155-105c19 0 36 24-5 38-24 9-32 19-32 37 0 37 49 50 79 22l-13-17c-17 19-40 10-40-4 0-7 4-11 20-16 29-11 37-20 37-41 0-47-62-59-90-18l17 16c5-11 15-17 27-17z m-161-20h-37v130h37c41 0 70-27 70-65 0-30-21-65-70-65z m107 0h-25v130h25v-130z m670-287c0-13-10-24-23-24h-639c302 57 609 222 662 255v-231z m-747 384c-9 8-19 11-35 11h-7v-86h7c16 0 27 3 35 10 9 8 14 20 14 33 0 12-5 24-14 32z" horiz-adv-x="1000" />

<glyph glyph-name="cc-mastercard" unicode="&#xe814;" d="M500 573c34-27 61-60 80-99 19-39 28-81 28-124 0-43-9-85-28-124-19-38-46-72-80-98-34 26-61 60-80 98-18 39-28 81-28 124 0 43 10 85 28 124 19 39 46 72 80 99z m-36 24c-36-30-65-68-84-111-20-43-30-89-30-136 0-47 10-93 30-136 19-43 48-80 84-111-43-24-92-37-142-36-49 0-97 14-140 39-43 25-78 60-103 103-24 43-37 92-37 141 0 50 13 98 37 141 25 43 60 79 103 104 43 25 91 38 141 38 49 1 98-12 141-36h0z m72-494c36 31 65 68 84 111 20 43 30 89 30 136 0 47-10 93-30 136-19 43-48 81-84 111 43 24 92 37 142 36 49 0 97-13 140-38 43-25 78-61 103-104 24-43 37-91 37-141 0-49-13-98-37-141-25-43-60-78-103-103-42-25-91-39-140-39-50-1-98 12-142 36h0z" horiz-adv-x="1000" />

<glyph glyph-name="cc-paypal" unicode="&#xe815;" d="M833 497c21-37 23-84 13-139-31-158-137-213-272-213h-21c-7 0-15-3-21-8-6-5-10-13-12-20l-1-10-27-166-1-7c-1-8-5-15-11-20-6-6-14-9-22-9h-139c-3 0-6 1-9 2-2 2-5 3-7 6-1 2-3 4-4 7 0 3-1 6 0 9l7 46h63l40 251h58c195 0 323 92 366 271z m-123 212c32-36 41-76 31-137-1-5-1-10-2-15-31-157-129-227-290-227h-79c-26 0-49-17-56-42l-1 0-38-245h-148c0 0 0 0-1 0 0 0 0 0 0 1-1 0-1 0-1 0 0 1 0 1 0 1l108 688c2 10 7 18 14 24 7 6 16 10 25 10h249c91 0 155-20 189-58h0z" horiz-adv-x="1000" />

<glyph glyph-name="cc-visa" unicode="&#xe816;" d="M42 683h916v-83h-916v83z m0-583h916v-83h-916v83z m776 129l-8 36h-81l-13-36-65 0c42 100 73 174 93 223 6 12 15 19 29 19 10 0 28 0 52 0l50-242-57 0v0z m-71 86h53l-20 90-33-90z m-419 156l65 0-101-242-66 0c-22 86-39 150-49 192-3 12-10 21-22 25-11 4-29 10-55 18v7h105c18 0 28-9 32-27l25-137 66 164z m155 0l-51-242-63 0 52 242 62 0z m127 4c18 0 42-6 55-11l-11-50c-12 5-32 11-49 11-24 0-40-11-40-21 0-16 27-24 54-41 31-20 35-38 35-58-1-40-35-80-107-80-33 1-45 3-72 13l11 52c28-11 39-15 63-15 21 0 40 9 40 24 0 10-7 16-31 29-24 13-58 32-57 68 0 47 45 79 109 79h0z" horiz-adv-x="1000" />

<glyph glyph-name="chat-o" unicode="&#xe817;" d="M323 19l-198-44 44 198c-29 55-44 115-44 177 0 207 168 375 375 375 207 0 375-168 375-375 0-207-168-375-375-375-62 0-122 15-177 44z m11 79l25-13c43-23 92-35 141-35 59 0 117 18 167 51 49 33 88 79 110 134 23 55 29 115 17 174-11 58-40 111-82 153-42 42-95 71-153 82-59 12-119 6-174-17-55-22-101-61-134-110-33-50-51-108-51-167 0-50 12-98 35-141l13-25-24-110 110 24z" horiz-adv-x="1000" />

<glyph glyph-name="chat" unicode="&#xe818;" d="M323 19l-198-44 44 198c-29 55-44 115-44 177 0 207 168 375 375 375 207 0 375-168 375-375 0-207-168-375-375-375-62 0-122 15-177 44z" horiz-adv-x="1000" />

<glyph glyph-name="check-circle-o" unicode="&#xe819;" d="M500-25c-207 0-375 168-375 375 0 207 168 375 375 375 207 0 375-168 375-375 0-207-168-375-375-375z m0 75c80 0 156 32 212 88 56 56 88 132 88 212 0 80-32 156-88 212-56 56-132 88-212 88-80 0-156-32-212-88-56-56-88-132-88-212 0-80 32-156 88-212 56-56 132-88 212-88z m-37 150l-159 159 53 53 106-106 212 212 53-53-265-265z" horiz-adv-x="1000" />

<glyph glyph-name="check-circle" unicode="&#xe81a;" d="M500-25c-207 0-375 168-375 375 0 207 168 375 375 375 207 0 375-168 375-375 0-207-168-375-375-375z m-37 225l265 265-53 53-212-212-106 106-53-53 159-159z" horiz-adv-x="1000" />

<glyph glyph-name="check" unicode="&#xe81b;" d="M432 217l383 383 59-59-442-442-265 265 59 59 206-206z" horiz-adv-x="1000" />

<glyph glyph-name="clock-o" unicode="&#xe81c;" d="M500-25c-207 0-375 168-375 375 0 207 168 375 375 375 207 0 375-168 375-375 0-207-168-375-375-375z m0 75c80 0 156 32 212 88 56 56 88 132 88 212 0 80-32 156-88 212-56 56-132 88-212 88-80 0-156-32-212-88-56-56-88-132-88-212 0-80 32-156 88-212 56-56 132-88 212-88z m42 300h125v-83h-209v291h84v-208z" horiz-adv-x="1000" />

<glyph glyph-name="computer" unicode="&#xe81d;" d="M588 136v-70l70-35v-35h-281l0 35 70 35v70h-245c-5 0-10 1-14 3-4 2-8 4-11 8-3 3-6 7-8 11-1 4-2 9-2 14v455c0 20 16 36 35 36h632c19 0 34-16 34-36v-455c0-20-15-36-34-36h-246z m-351 456v-315h561v315h-561z" horiz-adv-x="1000" />

<glyph glyph-name="context" unicode="&#xe81e;" d="M333 350c0-46-37-83-83-83-46 0-83 37-83 83 0 46 37 83 83 83 46 0 83-37 83-83z m250 0c0-46-37-83-83-83-46 0-83 37-83 83 0 46 37 83 83 83 46 0 83-37 83-83z m167-83c46 0 83 37 83 83 0 46-37 83-83 83-46 0-83-37-83-83 0-46 37-83 83-83z" horiz-adv-x="1000" />

<glyph glyph-name="cross-circle-o" unicode="&#xe81f;" d="M500-25c-207 0-375 168-375 375 0 207 168 375 375 375 207 0 375-168 375-375 0-207-168-375-375-375z m0 75c80 0 156 32 212 88 56 56 88 132 88 212 0 80-32 156-88 212-56 56-132 88-212 88-80 0-156-32-212-88-56-56-88-132-88-212 0-80 32-156 88-212 56-56 132-88 212-88z m0 353l106 106 53-53-106-106 106-106-53-53-106 106-106-106-53 53 106 106-106 106 53 53 106-106z" horiz-adv-x="1000" />

<glyph glyph-name="cross-circle" unicode="&#xe820;" d="M500-25c-207 0-375 168-375 375 0 207 168 375 375 375 207 0 375-168 375-375 0-207-168-375-375-375z m0 428l-106 106-53-53 106-106-106-106 53-53 106 106 106-106 53 53-106 106 106 106-53 53-106-106z" horiz-adv-x="1000" />

<glyph glyph-name="cross" unicode="&#xe821;" d="M500 409l206 206 59-59-206-206 206-206-59-59-206 206-206-206-59 59 206 206-206 206 59 59 206-206z" horiz-adv-x="1000" />

<glyph glyph-name="dice-o" unicode="&#xe822;" d="M367 283c-37 0-67-29-67-66 0-37 30-67 67-67 37 0 66 30 66 67 0 37-29 66-66 66z m66 67c0 37 30 67 67 67 37 0 67-30 67-67 0-37-30-67-67-67-37 0-67 30-67 67z m200 200c-36 0-66-30-66-67 0-36 30-66 66-66 37 0 67 30 67 66 0 37-30 67-67 67z m-466 0c0 74 59 133 133 133h400c74 0 133-59 133-133v-400c0-74-59-133-133-133h-400c-74 0-133 59-133 133v400z m66 0v-400c0-37 30-67 67-67h400c37 0 67 30 67 67v400c0 37-30 67-67 67h-400c-37 0-67-30-67-67z" horiz-adv-x="1000" />

<glyph glyph-name="dot" unicode="&#xe823;" d="M625 350c0-69-56-125-125-125-69 0-125 56-125 125 0 69 56 125 125 125 69 0 125-56 125-125z" horiz-adv-x="1000" />

<glyph glyph-name="download-cloud-o" unicode="&#xe824;" d="M125 257c0 38 10 75 28 108 18 33 45 60 76 80 9 66 41 127 91 170 50 44 114 68 180 68 66 0 130-24 180-68 50-43 82-104 91-170 39-24 70-61 88-104 17-43 21-91 10-136-11-46-37-86-72-117-36-30-80-48-127-52l-340 0c-115 9-205 105-205 221z m540-153c33 3 63 15 88 36 24 21 42 49 50 81 7 31 5 64-7 94-13 30-34 55-62 72l-27 18-4 32c-7 49-31 94-68 127-37 33-85 51-135 51-50 0-98-18-135-51-37-33-62-78-68-127l-4-32-27-18c-28-17-49-42-61-72-13-30-15-63-7-94 7-32 25-60 49-81 25-21 56-33 88-36l6 0h318l6 0z m-131 238h102l-136-170-136 170h102v137h68v-137z" horiz-adv-x="1000" />

<glyph glyph-name="download-cloud" unicode="&#xe825;" d="M330 36c-47 4-91 22-127 52-35 31-61 71-72 117-11 45-7 93 10 136 18 43 49 80 89 104 8 66 40 127 90 170 50 44 114 68 180 68 66 0 130-24 180-68 50-43 82-104 91-170 39-24 70-61 88-104 17-43 21-91 10-136-11-46-37-86-72-117-36-30-80-48-127-52v0h-340v0z m204 306v137h-68v-137h-102l136-170 136 170h-102z" horiz-adv-x="1000" />

<glyph glyph-name="drag-indicator" unicode="&#xe826;" d="M250 558h500v-41h-500v41z m0-166h500v-42h-500v42z m500-167h-500v-42h500v42z" horiz-adv-x="1000" />

<glyph glyph-name="earth-o" unicode="&#xe827;" d="M296 547c-45-47-73-108-78-173-6-65 11-130 48-184 36-53 90-93 153-112 62-18 129-15 189 10 4 27-5 52-8 61-9 20-35 54-80 101-12 12-11 22-7 51l0 3c3 20 8 31 74 42 34 5 43-8 55-27l4-6c12-17 20-21 33-27 6-3 13-6 23-11 23-14 23-29 23-61v-4c0-14-1-26-3-37 27 35 46 74 55 117 9 43 8 87-2 129-11 43-31 82-59 115-29 33-64 59-104 77-20-14-47-32-56-45-5-7-12-40-34-43-6-1-13 0-22 0-22 2-52 4-61-23-6-16-7-61 12-85 4-3 4-10 2-18-3-10-9-16-10-18-4 2-11 10-15 16-11 13-25 29-43 34-7 1-14 3-21 4-19 4-41 9-46 20-4 8-4 19-4 31 0 14 0 31-7 47-3 6-6 11-11 16z m204-551c-196 0-354 158-354 354 0 196 158 354 354 354 196 0 354-158 354-354 0-196-158-354-354-354z" horiz-adv-x="1000" />

<glyph glyph-name="earth" unicode="&#xe828;" d="M500-4c-196 0-354 158-354 354 0 196 158 354 354 354 196 0 354-158 354-354 0-196-158-354-354-354z m225 214v4c0 32 0 47-23 61-7 4-15 8-23 11-13 6-21 10-33 27-1 2-3 4-4 6-12 19-21 32-55 27-66-11-71-22-74-42l0-3c-4-29-5-39 7-51 45-47 71-81 80-101 4-10 14-39 7-68 43 17 81 44 111 79 4 14 7 30 7 50z m-225 429c-82 0-156-34-209-89 7-4 12-10 16-19 7-16 7-33 7-47 0-12 0-23 4-31 5-11 27-16 46-20 7-1 14-3 21-4 18-5 32-21 43-34 4-6 11-14 15-16 1 2 7 8 10 18 2 8 1 15-2 18-20 24-18 69-12 85 9 27 39 25 61 23 9 0 16-1 22 0 22 3 29 36 34 43 10 14 42 35 61 48-37 17-77 25-117 25z" horiz-adv-x="1000" />

<glyph glyph-name="external" unicode="&#xe829;" d="M426 614v-74h-185v-408h407v186h74v-223c0-9-4-19-11-26-7-7-16-11-26-11h-481c-10 0-19 4-26 11-7 7-11 17-11 26v482c0 10 4 19 11 26 7 7 16 11 26 11h222z m407 111v-333l-140 140-222-222-53 52 222 223-140 140h333z" horiz-adv-x="1000" />

<glyph glyph-name="eye-off-o" unicode="&#xe82a;" d="M713 86c-57-38-124-57-192-57-177 0-323 129-354 300 14 78 52 149 109 203l-102 104 46 47 648-661-46-47-109 111h0z m-391 398c-44-41-75-95-88-155 10-45 30-88 60-124 29-36 66-65 108-84 42-19 87-27 133-25 46 2 91 15 131 38l-67 68c-28-18-61-26-95-22-33 4-64 19-87 43-24 24-39 56-43 89-3 34 4 68 22 97l-74 75z m229-233l-106 109c-6-15-8-32-4-48 3-16 11-30 22-42 11-11 26-19 41-23 16-3 32-1 47 5l0-1z m258-75l-47 48c22 31 38 67 46 105-9 40-25 77-49 110-24 33-53 61-88 82-34 21-72 34-112 39-40 6-80 3-118-8l-52 52c41 17 85 26 132 26 176 0 323-130 354-301-10-55-33-108-66-153z m-297 303c21 2 42-2 61-9 20-8 37-19 52-35 15-15 26-33 34-53 7-19 10-41 9-62l-156 159h0z" horiz-adv-x="1000" />

<glyph glyph-name="eye-off" unicode="&#xe82b;" d="M276 532l-102 104 46 47 648-661-46-47-109 111c-57-38-124-57-192-57-177 0-323 129-354 300 14 78 52 149 109 203z m335-342l-48 49c-18-9-39-12-59-9-20 4-38 14-53 28-14 15-24 34-27 54-3 21-1 42 8 60l-48 49c-21-32-30-70-26-109 4-38 20-74 47-101 27-27 62-44 99-48 38-4 76 6 107 27z m-222 414c41 17 85 26 132 26 176 0 323-130 354-301-10-55-33-108-66-153l-126 129c4 26 1 52-7 77-8 24-21 47-39 65-18 19-40 33-65 41-24 8-50 10-75 6l-108 110z" horiz-adv-x="1000" />

<glyph glyph-name="eye-on-o" unicode="&#xe82c;" d="M521 629c176 0 323-127 354-294-31-168-178-295-354-295-177 0-323 127-354 295 30 167 177 294 354 294z m0-524c67 0 131 23 184 65 52 41 88 100 103 165-15 65-51 123-103 164-53 42-117 64-184 64-67 0-132-22-184-64-52-41-89-99-103-164 14-65 51-124 103-165 52-42 117-65 184-65z m0 82c-39 0-77 16-104 43-28 28-43 66-43 105 0 39 15 76 43 104 27 27 65 43 104 43 39 0 76-16 104-43 28-28 43-65 43-104 0-39-15-77-43-105-28-27-65-43-104-43z m0 66c22 0 42 8 58 24 15 15 24 36 24 58 0 21-9 42-24 57-16 16-36 24-58 24-22 0-43-8-58-24-15-15-24-36-24-57 0-22 9-43 24-58 15-16 36-24 58-24z" horiz-adv-x="1000" />

<glyph glyph-name="eye-on" unicode="&#xe82d;" d="M167 335c30 167 177 294 354 294 176 0 323-127 354-294-31-168-178-295-354-295-177 0-323 127-354 295z m354-164c43 0 85 17 116 48 30 31 48 72 48 116 0 43-18 85-48 115-31 31-73 48-116 48-44 0-85-17-116-48-31-30-48-72-48-115 0-44 17-85 48-116 31-31 72-48 116-48z m0 65c-26 0-51 11-70 29-18 19-28 44-28 70 0 26 10 51 28 69 19 18 44 29 70 29 26 0 51-11 69-29 19-18 29-43 29-69 0-26-10-51-29-70-18-18-43-29-69-29z" horiz-adv-x="1000" />

<glyph glyph-name="facebook" unicode="&#xe82e;" d="M583 276h90l35 142h-125v71c0 36 0 70 72 70h53v119c-11 2-55 5-102 5-97 0-165-58-165-166v-99h-108v-142h108v-301h142v301z" horiz-adv-x="1000" />

<glyph glyph-name="file-music-o" unicode="&#xe82f;" d="M648 500v-75h-111v-169c0-19-6-38-17-54-11-16-26-28-44-34-18-6-38-7-56-2-19 5-35 16-47 31-12 15-20 33-21 53-1 19 3 38 13 55 10 16 25 29 42 37 18 8 37 10 56 6v152h148v150h-370v-600h518v450h-111z m-481 188c0 20 16 37 37 37h444l185-187v-525c0-5-1-10-2-15-2-4-5-8-8-12-4-3-8-6-12-8-5-2-10-3-14-3h-594c-9 0-19 4-25 11-7 7-11 16-11 26v676z" horiz-adv-x="1000" />

<glyph glyph-name="file-music" unicode="&#xe830;" d="M648 725l185-187v-526c0-10-4-19-10-26-7-7-17-11-26-11h-594c-9 0-19 4-25 11-7 7-11 16-11 26v676c0 20 16 37 36 37h445z m-185-377c-19 4-38 2-56-6-17-8-32-21-42-37-10-17-14-36-13-55 1-20 9-38 21-53 12-15 28-26 47-31 18-5 38-4 56 2 18 6 33 18 44 34 11 16 17 35 17 54v169h111v75h-185v-152z" horiz-adv-x="1000" />

<glyph glyph-name="file-o" unicode="&#xe831;" d="M389 725v0h407c21 0 37-17 37-37v-676c0-10-4-19-10-26-7-7-17-11-26-11h-594c-4 0-9 1-14 3-4 2-8 5-12 8-3 4-6 8-8 12-1 5-2 10-2 15v487l222 225z m-117-225h117v119l-117-119z m191 150v-187c0-10-4-20-11-27-7-7-16-11-26-11h-185v-375h518v600h-296z" horiz-adv-x="1000" />

<glyph glyph-name="file" unicode="&#xe832;" d="M167 500l222 225h407c21 0 37-17 37-37v-676c0-10-4-19-10-26-7-7-17-11-26-11h-594c-4 0-9 1-14 3-4 2-8 5-12 8-3 4-6 8-8 12-1 5-2 10-2 15v487z m259 169l-204-206h204v206z" horiz-adv-x="1000" />

<glyph glyph-name="filter-hp-12" unicode="&#xe833;" d="M539 433c-9 0-18-3-25-9l-325-273c-17-15-42-12-55 6-14 18-11 45 6 59l325 273c21 18 47 28 74 28h297c21 0 39-19 39-42 0-23-18-42-39-42h-297z" horiz-adv-x="1000" />

<glyph glyph-name="filter-hp-24" unicode="&#xe834;" d="M458 433c-16 0-30-8-37-21l-134-248c-11-21-37-28-57-17-20 11-28 36-17 56l135 248c22 41 64 66 110 66h292c23 0 42-19 42-42 0-23-19-42-42-42h-292z" horiz-adv-x="1000" />

<glyph glyph-name="filter-lp-12" unicode="&#xe835;" d="M494 433c10 0 19-3 26-10l289-271c17-15 42-13 56 4 15 17 13 43-3 59l-289 270c-22 21-50 32-79 32h-329c-22 0-40-19-40-42 0-23 18-42 40-42h329z" horiz-adv-x="1000" />

<glyph glyph-name="filter-lp-24" unicode="&#xe836;" d="M539 433c15 0 29-8 36-21l139-249c11-20 36-27 56-16 20 11 28 37 16 57l-138 248c-22 40-64 65-109 65h-331c-23 0-41-19-41-42 0-23 18-42 41-42h331z" horiz-adv-x="1000" />

<glyph glyph-name="filter" unicode="&#xe837;" d="M426 142h148v69h-148v-69z m-259 416v-69h666v69h-666z m111-243h444v70h-444v-70z" horiz-adv-x="1000" />

<glyph glyph-name="folder-music-o" unicode="&#xe838;" d="M516 609h322c9 0 19-4 26-11 7-6 11-16 11-26v-518c0-10-4-19-11-26-7-7-17-11-26-11h-675c-10 0-20 4-27 11-7 7-11 16-11 26v592c0 10 4 20 11 27 7 6 17 10 27 10h278l75-74z m-316 0v-518h600v444h-315l-75 74h-210z m263-298v150h187v-74h-112v-167c0-19-6-37-18-53-11-16-27-27-45-34-18-6-38-7-56-2-19 5-36 16-48 31-12 15-19 33-21 52-1 19 4 38 14 54 10 17 24 30 42 37 18 8 38 10 57 6z" horiz-adv-x="1000" />

<glyph glyph-name="folder-music" unicode="&#xe839;" d="M516 609h322c9 0 19-4 26-11 7-6 11-16 11-26v-518c0-10-4-19-11-26-7-7-17-11-26-11h-675c-10 0-20 4-27 11-7 7-11 16-11 26v592c0 10 4 20 11 27 7 6 17 10 27 10h278l75-74z m-53-298c-19 4-39 2-57-6-18-7-32-20-42-37-10-16-15-35-14-54 2-19 9-37 21-52 12-15 29-26 48-31 18-5 38-4 56 2 18 7 34 18 45 34 12 16 18 34 18 53v167h112v74h-187v-150z" horiz-adv-x="1000" />

<glyph glyph-name="folder-o" unicode="&#xe83a;" d="M200 609v-518h600v444h-315l-75 74h-210z m316 0h322c9 0 19-4 26-11 7-6 11-16 11-26v-518c0-10-4-19-11-26-7-7-17-11-26-11h-675c-10 0-20 4-27 11-7 7-11 16-11 26v592c0 10 4 20 11 27 7 6 17 10 27 10h278l75-74z" horiz-adv-x="1000" />

<glyph glyph-name="folder" unicode="&#xe83b;" d="M516 609h322c9 0 19-4 26-11 7-6 11-16 11-26v-518c0-10-4-19-11-26-7-7-17-11-26-11h-675c-10 0-20 4-27 11-7 7-11 16-11 26v592c0 10 4 20 11 27 7 6 17 10 27 10h278l75-74z" horiz-adv-x="1000" />

<glyph glyph-name="hamburger" unicode="&#xe83c;" d="M125 600c-23 0-42-19-42-42 0-23 19-41 42-41h750c23 0 42 18 42 41 0 23-19 42-42 42h-750z m0-417c-23 0-42-18-42-41 0-23 19-42 42-42h750c23 0 42 19 42 42 0 23-19 41-42 41h-750z" horiz-adv-x="1000" />

<glyph glyph-name="hard-drive-o" unicode="&#xe83d;" d="M273 284h454v324h-454v-324z m0-65v-129h454v129h-454z m-32 454h518c9 0 17-3 23-10 6-6 10-14 10-22v-584c0-8-4-17-10-23-6-6-14-9-23-9h-518c-9 0-17 3-23 9-6 6-10 15-10 23v584c0 8 4 16 10 22 6 7 14 10 23 10z m356-486h65v-65h-65v65z" horiz-adv-x="1000" />

<glyph glyph-name="hard-drive" unicode="&#xe83e;" d="M792 641v-584c0-8-4-17-10-23-6-6-14-9-23-9h-518c-9 0-17 3-23 9-6 6-10 15-10 23v584c0 8 4 16 10 22 6 7 14 10 23 10h518c9 0 17-3 23-10 6-6 10-14 10-22z m-519-422v-129h454v129h-454z m324-32h65v-65h-65v65z" horiz-adv-x="1000" />

<glyph glyph-name="heart-o" unicode="&#xe83f;" d="M233 328l0-1 267-269 267 269 0 1c31 36 47 83 45 131-1 48-21 93-55 127-34 34-79 54-127 56-47 1-94-15-130-46-36 31-83 47-130 46-48-2-93-22-127-56-34-34-53-79-55-127-2-48 14-95 45-131z m479 47l-212-213-208 210-3 3c-20 22-30 51-28 81 1 30 13 58 34 79 21 21 48 33 77 34 30 1 58-9 80-29l48-41 48 41c22 20 51 30 80 29 29-1 57-13 77-34 21-21 33-49 35-79 1-30-9-59-28-81l0 0z" horiz-adv-x="1000" />

<glyph glyph-name="heart" unicode="&#xe840;" d="M767 328l0-1-267-269-267 269 0 1c-31 36-47 83-45 131 2 48 21 93 55 127 34 34 79 54 127 56 47 1 94-15 130-46 36 31 83 47 130 46 48-2 93-22 127-56 34-34 54-79 55-127 2-48-14-95-45-131z" horiz-adv-x="1000" />

<glyph glyph-name="hold" unicode="&#xe841;" d="M323 134h77v180h196v-180h77v424h-77v-179h-196v179h-77v-424z" horiz-adv-x="1000" />

<glyph glyph-name="home-o" unicode="&#xe842;" d="M739 14h-478c-9 0-17 3-24 10-6 6-10 15-10 24v306h-102l352 321c6 5 15 8 23 8 9 0 17-3 23-8l352-321h-102v-306c0-9-4-18-10-24-7-7-15-10-24-10z m-443 68h409v335l-205 186-204-186v-335z" horiz-adv-x="1000" />

<glyph glyph-name="home" unicode="&#xe843;" d="M773 48c0-9-4-18-10-24-7-7-15-10-24-10h-478c-9 0-17 3-24 10-6 6-10 15-10 24v306h-102l352 321c6 5 15 8 23 8 9 0 17-3 23-8l352-321h-102v-306z" horiz-adv-x="1000" />

<glyph glyph-name="info-o" unicode="&#xe844;" d="M500-25c-207 0-375 168-375 375 0 207 168 375 375 375 207 0 375-168 375-375 0-207-168-375-375-375z m0 75c80 0 156 32 212 88 56 56 88 132 88 212 0 80-32 156-88 212-56 56-132 88-212 88-80 0-156-32-212-88-56-56-88-132-88-212 0-80 32-156 88-212 56-56 132-88 212-88z m-37 488h75v-75h-75v75z m0-150h75v-225h-75v225z" horiz-adv-x="1000" />

<glyph glyph-name="info" unicode="&#xe845;" d="M500-25c-207 0-375 168-375 375 0 207 168 375 375 375 207 0 375-168 375-375 0-207-168-375-375-375z m-37 413v-225h75v225h-75z m0 150v-75h75v75h-75z" horiz-adv-x="1000" />

<glyph glyph-name="instagram" unicode="&#xe846;" d="M500 463c-30 0-58-12-80-33-21-22-32-50-32-80 0-30 11-58 32-79 22-22 50-33 80-33 30 0 58 11 80 33 21 21 33 49 33 79 0 30-12 58-33 80-22 21-50 33-80 33z m0 75c50 0 97-20 133-55 35-36 55-83 55-133 0-50-20-97-55-133-36-35-83-54-133-54-50 0-97 19-133 54-35 36-54 83-54 133 0 50 19 97 54 133 36 35 83 55 133 55z m244 9c0-13-5-24-14-33-9-9-21-14-33-14-13 0-24 5-33 14-9 9-14 20-14 33 0 12 5 24 14 33 9 9 20 14 33 14 12 0 24-5 33-14 9-9 14-21 14-33z m-244 103c-93 0-108 0-151-2-29-2-49-5-67-13-17-6-28-13-41-26-12-11-21-25-26-40-7-19-11-38-13-68-2-41-2-56-2-151 0-93 0-108 2-151 2-29 6-49 13-67 6-17 14-28 26-41 13-13 24-20 40-26 19-7 39-11 68-13 41-2 56-2 151-2 93 0 108 0 151 2 29 2 49 6 68 13 16 6 28 14 40 26 13 13 20 24 26 40 8 19 12 39 13 68 2 41 2 56 2 151 0 93 0 108-2 151-2 29-5 49-13 68-5 15-14 29-26 40-11 12-25 21-40 26-19 8-39 12-68 13-41 2-56 2-151 2z m0 75c102 0 115 0 155-2 40-2 67-8 91-18 24-9 45-22 66-43 19-19 34-41 43-66 10-24 16-51 18-91 2-40 2-53 2-155 0-102 0-115-2-155-2-39-8-67-18-91-9-25-24-47-43-66-19-19-41-34-66-43-24-10-51-16-91-18-40-2-53-2-155-2-102 0-115 0-155 2-39 2-67 8-91 18-25 9-47 24-66 43-19 19-34 41-43 66-10 24-16 52-18 91-1 40-2 53-2 155 0 102 0 115 2 155 2 40 8 67 18 91 9 25 24 47 43 66 19 19 41 34 66 43 24 10 51 16 91 18 40 2 53 2 155 2z" horiz-adv-x="1000" />

<glyph glyph-name="keyboard-o" unicode="&#xe847;" d="M259 683c-51 0-92-41-92-92v-461c0-51 41-92 92-92h461c51 0 93 41 93 92v461c0 51-42 92-93 92h-461z m277-46v-323c0-25 20-46 46-46v-184h-185v184c26 0 47 21 47 46v323h92z m-185-553h-92c-25 0-46 20-46 46v461c0 26 21 46 46 46h46v-323c0-25 21-46 46-46v-184z m415 46c0-26-20-46-46-46h-92v184c26 0 46 21 46 46v323h46c26 0 46-20 46-46v-461z" horiz-adv-x="1000" />

<glyph glyph-name="keyboard" unicode="&#xe848;" d="M272 673c-52 0-95-43-95-95v-456c0-52 43-95 95-95h456c52 0 95 43 95 95v456c0 52-43 95-95 95h-26v-321c0-27-21-48-48-48l-13 0v-277h-40v277l-13 0c-26 0-48 21-48 48v321h-80v-321c0-27-22-48-48-48l-13 0v-277h-40v277l-13 0c-26 0-48 21-48 48v321h-26z" horiz-adv-x="1000" />

<glyph glyph-name="knob" unicode="&#xe849;" d="M833 371c0-173-140-313-312-313-173 0-313 140-313 313 0 172 140 312 313 312 172 0 312-140 312-312z m-87-42h-225c-23 0-42 19-42 42 0 23 19 42 42 42h225c-19 106-113 187-225 187-127 0-229-103-229-229 0-127 102-229 229-229 112 0 206 81 225 187z" horiz-adv-x="1000" />

<glyph glyph-name="layers" unicode="&#xe84a;" d="M458 631c26 14 58 14 83 0l219-126c28-16 28-56 0-72l-219-126c-25-15-57-15-83 0l-218 126c-28 16-28 56 0 72l218 126z m52-55c-6 4-14 4-21 0l-187-107 187-108c7-4 15-4 21 0l188 108-188 107z m-268-201l-2-2c-28-16-28-56 0-72l218-126c26-15 58-15 83 0l219 126c28 16 28 56 0 72l-3 2-216-124c-25-15-57-15-83 0l-216 124z m0-125l-2-2c-28-16-28-56 0-72l218-126c26-15 58-15 83 0l219 126c28 16 28 56 0 72l-3 2-216-124c-25-15-57-15-83 0l-216 124z" horiz-adv-x="1000" />

<glyph glyph-name="learn-o" unicode="&#xe84b;" d="M479 628c14 6 30 6 44 0l335-151c42-18 42-78 0-96l-133-60c0-2 1-5 1-7 2-14 2-28 1-43-2-38-14-75-34-107-21-32-49-59-82-77-34-19-71-28-109-29-38 0-76 10-109 28-34 18-62 45-83 77-21 32-33 69-35 107-1 14-1 29 1 43 0 2 1 5 1 8l-79 35 0-243c0-20-15-36-35-36l-17 0c-20 0-36 16-36 36l2 315c0 3 1 6 1 8 3 17 13 33 31 41l335 151z m22-68l-292-131 292-131 292 131-292 131z m156-280l-96-45c-38-18-82-18-120 0l-96 44c0-1 0-3 0-4 2-27 10-52 25-74 14-22 33-40 56-53 23-12 49-19 76-19 26 0 52 7 75 20 22 12 42 31 56 53 14 22 22 48 24 74 0 1 0 3 0 4z" horiz-adv-x="1000" />

<glyph glyph-name="learn" unicode="&#xe84c;" d="M481 642c5 2 11 2 17 0l368-166c17-7 17-31 0-38l-368-166c-6-2-12-2-17 0l-323 145v-327c0-18-14-32-32-32-17 0-31 14-31 32v356c0 8 3 15 7 21 2 4 5 7 10 9l369 166z m-244-374c0 11 1 21 3 32l240-112c6-2 12-2 18 0l240 112c2-11 3-21 3-32 0-116-113-210-252-210-139 0-252 94-252 210z" horiz-adv-x="1000" />

<glyph glyph-name="lock-o" unicode="&#xe84d;" d="M742 417h33c9 0 17-4 24-10 6-6 9-15 9-24v-333c0-9-3-17-9-24-7-6-15-9-24-9h-533c-9 0-18 3-24 9-6 7-10 15-10 24v333c0 9 4 18 10 24 6 6 15 10 24 10h33v33c0 31 6 61 18 89 12 29 29 54 50 76 22 22 48 39 76 51 28 11 59 17 89 17 31 0 61-6 90-17 28-12 54-29 75-51 22-22 39-47 51-76 12-28 18-58 18-89v-33z m-467-67v-267h467v267h-467z m200-67h67v-133h-67v133z m200 134v33c0 44-18 87-49 118-31 31-73 49-118 49-44 0-86-18-117-49-32-31-49-74-49-118v-33h333z" horiz-adv-x="1000" />

<glyph glyph-name="lock" unicode="&#xe84e;" d="M742 417h33c9 0 17-4 24-10 6-6 9-15 9-24v-333c0-9-3-17-9-24-7-6-15-9-24-9h-533c-9 0-18 3-24 9-6 7-10 15-10 24v333c0 9 4 18 10 24 6 6 15 10 24 10h33v33c0 31 6 61 18 89 12 29 29 54 50 76 22 22 48 39 76 51 28 11 59 17 89 17 31 0 61-6 90-17 28-12 54-29 75-51 22-22 39-47 51-76 12-28 18-58 18-89v-33z m-67 0v33c0 44-18 87-49 118-31 31-73 49-118 49-44 0-86-18-117-49-32-31-49-74-49-118v-33h333z m-200-134v-133h67v133h-67z" horiz-adv-x="1000" />

<glyph glyph-name="logout-box-o" unicode="&#xe84f;" d="M267 150h66v-67h400v534h-400v-67h-66v100c0 9 3 17 9 24 7 6 15 9 24 9h467c9 0 17-3 23-9 7-7 10-15 10-24v-600c0-9-3-17-10-24-6-6-14-9-23-9h-467c-9 0-17 3-24 9-6 7-9 15-9 24v100z m66 233h234v-66h-234v-100l-166 133 166 133v-100z" horiz-adv-x="1000" />

<glyph glyph-name="logout-box" unicode="&#xe850;" d="M283 683h467c9 0 17-3 24-9 6-7 9-15 9-24v-600c0-9-3-17-9-24-7-6-15-9-24-9h-467c-8 0-17 3-23 9-6 7-10 15-10 24v600c0 9 4 17 10 24 6 6 15 9 23 9z m134-300v100l-167-133 167-133v100h200v66h-200z" horiz-adv-x="1000" />

<glyph glyph-name="loop-edit" unicode="&#xe851;" d="M458 600c0 23 19 42 42 42 23 0 42-19 42-42v-500c0-23-19-42-42-42-23 0-42 19-42 42v500z m-125-125c0 23 19 42 42 42 23 0 42-19 42-42v-250c0-23-19-42-42-42-23 0-42 19-42 42v250z m292 0c-23 0-42-19-42-42v-166c0-23 19-42 42-42 23 0 42 19 42 42v166c0 23-19 42-42 42z m83-83c0 23 19 41 42 41 23 0 42-18 42-41v-84c0-23-19-41-42-41-23 0-42 18-42 41v84z m-458 41c-23 0-42-18-42-41v-84c0-23 19-41 42-41 23 0 42 18 42 41v84c0 23-19 41-42 41z" horiz-adv-x="1000" />

<glyph glyph-name="loop-kit-sm-plus" unicode="&#xe852;" d="M875 350c0-207-168-375-375-375-207 0-375 168-375 375 0 207 168 375 375 375 27 0 54-3 80-8-47-19-80-64-80-117 0-41 20-77 50-100-5-7-8-16-8-25v-250c0-23 18-42 41-42 23 0 42 19 42 42v250c0-37 16-70 42-93v-74c0-23 18-41 41-41 23 0 42 18 42 41v42c53 0 98 33 117 80 5-26 8-53 8-80z m-417 250c-23 0-41-19-41-42v-416c0-23 18-42 41-42 23 0 42 19 42 42v416c0 23-19 42-42 42z m-125-83c-23 0-41-19-41-42v-250c0-23 18-42 41-42 23 0 42 19 42 42v250c0 23-19 42-42 42z m417 250c-23 0-42-19-42-42v-83h-83c-23 0-42-19-42-42 0-23 19-42 42-42h83v-83c0-23 19-42 42-42 23 0 42 19 42 42v83h83c23 0 42 19 42 42 0 23-19 42-42 42h-83v83c0 23-19 42-42 42z" horiz-adv-x="1000" />

<glyph glyph-name="loop-kit-sm" unicode="&#xe853;" d="M500-25c207 0 375 168 375 375 0 207-168 375-375 375-207 0-375-168-375-375 0-207 168-375 375-375z m-83 583c0 23 18 42 41 42 23 0 42-19 42-42v-416c0-23-19-42-42-42-23 0-41 19-41 42v416z m-125-83c0 23 18 42 41 42 23 0 42-19 42-42v-250c0-23-19-42-42-42-23 0-41 19-41 42v250z m291 42c23 0 42-19 42-42v-250c0-23-19-42-42-42-23 0-41 19-41 42v250c0 23 18 42 41 42z m84-125c0 23 18 41 41 41 23 0 42-18 42-41v-84c0-23-19-41-42-41-23 0-41 18-41 41v84z" horiz-adv-x="1000" />

<glyph glyph-name="loop-kit" unicode="&#xe854;" d="M500-108c253 0 458 205 458 458 0 253-205 458-458 458-253 0-458-205-458-458 0-253 205-458 458-458z m-125 729c0 34 28 62 63 62 34 0 62-28 62-62v-542c0-34-28-62-62-62-35 0-63 28-63 62v542z m167-125c0 34 28 62 62 62 35 0 63-28 63-62v-292c0-34-28-62-63-62-34 0-62 28-62 62v292z m-334-42c0 35 28 63 63 63 34 0 62-28 62-63v-208c0-35-28-63-62-63-35 0-63 28-63 63v208z m563 21c34 0 62-28 62-62v-84c0-34-28-62-62-62-35 0-63 28-63 62v84c0 34 28 62 63 62z" horiz-adv-x="1000" />

<glyph glyph-name="loop" unicode="&#xe855;" d="M333 475c-67 0-125-57-125-125 0-26 9-51 23-71 7-10 5-23-4-29-10-7-23-5-29 5-20 27-31 60-31 95 0 91 76 167 166 167h334c11 0 21-10 21-21 0-12-10-21-21-21h-334z m441-25c9 7 22 5 29-5 19-27 30-60 30-95 0-35-11-68-30-95-31-43-81-72-136-72h-334c-11 0-20 10-20 21 0 12 9 21 20 21h334c41 0 79 21 102 54 14 20 23 45 23 71 0 26-9 51-23 71-7 10-5 23 5 29z m-191-21v133c0 17 18 27 32 18l107-66c13-9 13-28 0-36l-107-66c-14-9-32 1-32 17z m-166-158l0-133c0-17-18-27-32-18l-107 67c-13 8-13 27 0 35l107 66c14 9 32-1 32-17z" horiz-adv-x="1000" />

<glyph glyph-name="mac" unicode="&#xe856;" d="M505 536c-31 0-80 36-132 35-69-1-131-40-166-101-71-123-19-305 51-405 33-49 73-104 127-102 50 2 70 33 131 33 62 0 79-33 133-32 55 1 90 50 123 99 39 57 55 111 56 114-2 1-107 41-108 163-1 102 83 151 87 153-48 70-122 78-147 79-67 6-123-36-155-36z m113 102c29 34 47 82 42 129-40-2-89-27-118-61-26-30-49-78-43-125 45-3 91 24 119 57z" horiz-adv-x="1000" />

<glyph glyph-name="macro" unicode="&#xe857;" d="M625 623c0 31 32 51 57 32 92-68 151-177 151-300 0-124-59-233-151-301-25-19-57 1-57 32v7c0 14 7 27 17 35 66 54 108 135 108 227 0 91-42 172-108 226-10 8-17 21-17 35v7z m-250-537c0-31-32-51-57-32-92 68-151 177-151 301 0 123 59 232 151 300 25 19 57-1 57-32v-7c0-14-7-27-17-35-66-54-108-135-108-226 0-92 42-173 108-227 10-8 17-21 17-35v-7z m-15 440c22 24 57 5 57-27v-18c0-11-4-20-10-29-20-27-32-61-32-97 0-37 12-71 32-98 6-9 10-18 10-28v-19c0-32-35-51-57-27-42 44-68 105-68 172 0 66 26 127 68 171z m233-269c-6-9-10-18-10-28v-19c0-32 35-51 57-27 42 44 68 105 68 172 0 66-26 127-68 171-22 24-57 5-57-27v-18c0-11 4-20 10-29 20-27 32-61 32-97 0-37-12-71-32-98z" horiz-adv-x="1000" />

<glyph glyph-name="mail" unicode="&#xe858;" d="M250 319h180v62h-180v287c0 2 1 5 2 7 1 3 3 5 5 6 3 2 5 2 8 2 2 0 5 0 7-2l554-317c2-2 4-4 5-6 2-2 2-5 2-8 0-3 0-6-2-8-1-2-3-4-5-6l-554-317c-2-2-5-2-7-2-3 0-5 1-8 2-2 1-4 3-5 6-1 2-2 5-2 7v287z" horiz-adv-x="1000" />

<glyph glyph-name="mapping-editor" unicode="&#xe859;" d="M594 475c-8 0-16-3-22-9l-182-175-15-56 58 14 183 175c3 3 5 6 7 10 1 4 2 7 2 11 0 4-1 8-2 12-2 3-4 7-7 9-3 3-6 5-10 7-4 1-8 2-12 2z m198-125c0-161-131-292-292-292-161 0-292 131-292 292 0 161 131 292 292 292 161 0 292-131 292-292z m-84 0c0 115-93 208-208 208-115 0-208-93-208-208 0-115 93-208 208-208 115 0 208 93 208 208z" horiz-adv-x="1000" />

<glyph glyph-name="minus" unicode="&#xe85a;" d="M739 403c29 0 53-24 53-53 0-29-24-53-53-53l-478 0c-29 0-53 24-53 53 0 29 24 53 53 53l478 0z" horiz-adv-x="1000" />

<glyph glyph-name="modulation" unicode="&#xe85b;" d="M338 370c-14-28-41-62-88-62-23 0-42 19-42 42 0 23 19 42 42 42 2 0 2 0 3 1 3 2 6 6 11 15 9 18 16 44 24 77 0 1 0 2 0 3 8 29 16 64 30 92 15 28 41 62 88 62 33 0 54-22 66-40 13-19 22-43 30-68 15-49 27-113 39-174l0-2c12-64 23-123 37-167 7-23 13-38 19-46 1-1 1-1 1-1 2 2 5 6 9 14 10 18 16 44 25 77 0 1 0 2 0 3 7 29 16 64 30 92 14 28 41 62 88 62 23 0 42-19 42-42 0-23-19-42-42-42-1 0-2 0-3-1-2-2-6-6-10-15-10-18-16-44-25-77 0-1 0-2 0-3-8-29-16-64-30-92-15-28-41-62-88-62-33 0-54 22-66 40-12 19-22 43-30 68-15 49-27 113-39 174l0 2c-12 64-23 123-37 167-7 23-13 38-19 46 0 1-1 1-1 1-2-2-5-6-9-14-9-18-16-44-24-77-1-1-1-2-1-3-7-29-16-64-30-92z m61 191c0 0 0-1 0-1 0 0 0 1 0 1z m202-421c0 0 0 0 0 0 0 0 0 0 0 0z" horiz-adv-x="1000" />

<glyph glyph-name="note-kit-sm-plus" unicode="&#xe85c;" d="M625-4v271h-21c-34 0-62 28-62 62v178c-26 23-42 56-42 93 0 37 16 70 42 93v30c-14 1-28 2-42 2-14 0-28-1-42-2v-394c0-34-28-62-62-62h-21v-271c39-14 81-21 125-21 44 0 86 7 125 21z m83 361c13-4 27-7 42-7 53 0 98 33 117 80 5-26 8-53 8-80 0-147-85-275-208-336v256c24 9 41 32 41 59v28z m-583-7c0-147 85-275 208-336v256c-24 9-41 32-41 59v333c-101-67-167-182-167-312z m625 417c-23 0-42-19-42-42v-83h-83c-23 0-42-19-42-42 0-23 19-42 42-42h83v-83c0-23 19-42 42-42 23 0 42 19 42 42v83h83c23 0 42 19 42 42 0 23-19 42-42 42h-83v83c0 23-19 42-42 42z" horiz-adv-x="1000" />

<glyph glyph-name="note-kit-sm" unicode="&#xe85d;" d="M667 14c123 61 208 189 208 336 0 130-66 245-167 312v-333c0-27-17-50-41-59v-256z m-42-18v271h-21c-34 0-62 28-62 62v394c-14 1-28 2-42 2-14 0-28-1-42-2v-394c0-34-28-62-62-62h-21v-271c39-14 81-21 125-21 44 0 86 7 125 21z m-292 18c-123 61-208 189-208 336 0 130 66 245 167 312v-333c0-27 17-50 41-59v-256z" horiz-adv-x="1000" />

<glyph glyph-name="note-kit" unicode="&#xe85e;" d="M208 704c-101-84-166-212-166-354 0-178 101-332 250-408v366c-46 0-84 38-84 84v312z m125-781v385c46 0 84 38 84 84v409c27 5 55 7 83 7 29 0 56-2 83-7v-409c0-46 38-84 84-84v-385c-52-20-108-31-167-31-59 0-115 11-167 31z m375 19c149 76 250 230 250 408 0 142-64 270-166 354v-312c0-46-38-84-84-84v-366z" horiz-adv-x="1000" />

<glyph glyph-name="pencil-o" unicode="&#xe85f;" d="M668 421l-55 56-367-367v-56h55l367 367z m56 56l56 55-56 56-56-56 56-55z m-390-502h-167v167l529 530c8 7 18 11 28 11 11 0 21-4 28-11l112-112c7-7 11-17 11-28 0-10-4-20-11-27l-530-530h0z" horiz-adv-x="1000" />

<glyph glyph-name="pencil" unicode="&#xe860;" d="M557 532l167-167-390-390h-167v167l390 391v-1z m56 56l83 84c8 7 18 11 28 11 11 0 21-4 28-11l112-112c7-7 11-17 11-28 0-10-4-20-11-27l-84-84-167 167z" horiz-adv-x="1000" />

<glyph glyph-name="ping-pong" unicode="&#xe861;" d="M292 517h541v-42h-83v-212c24-8 42-32 42-59 0-34-28-62-63-62-34 0-62 28-62 62 0 27 17 51 41 59v212h-83v-212c24-8 42-32 42-59 0-34-28-62-63-62-34 0-62 28-62 62 0 27 17 51 41 59v212h-83v-212c24-8 42-32 42-59 0-34-28-62-63-62-34 0-62 28-62 62 0 27 17 51 41 59v212h-52l-102-176c13-19 14-44 2-66-17-29-55-40-85-22-30 17-40 55-23 85 15 26 45 37 73 28l87 151h-66v42z" horiz-adv-x="1000" />

<glyph glyph-name="play" unicode="&#xe862;" d="M397 106c-28-17-64 2-64 35v425c0 33 36 52 64 35l334-213c25-16 25-53 0-69l-334-213z" horiz-adv-x="1000" />

<glyph glyph-name="playback-bwd" unicode="&#xe863;" d="M476 292c-34 19-51 29-56 42-4 10-4 22 0 32 5 13 22 23 56 43l173 99c34 20 51 29 65 28 11-2 21-7 28-16 8-12 8-31 8-70v-200c0-39 0-58-8-69-7-9-17-15-28-17-14-1-31 8-65 28l-173 100z m-226 225c0 23 19 41 42 41 23 0 41-18 41-41v-334c0-23-18-41-41-41-23 0-42 18-42 41v334z" horiz-adv-x="1000" />

<glyph glyph-name="playback-dwd" unicode="&#xe864;" d="M559 243c-20-34-30-51-43-56-10-5-22-5-32 0-13 5-23 22-42 56l-100 172c-20 34-29 51-28 65 2 11 8 21 17 28 11 9 30 9 69 9l200 0c39 0 58 0 70-9 9-7 14-17 16-28 1-14-8-31-28-65l-99-172z" horiz-adv-x="1000" />

<glyph glyph-name="playback-fwd" unicode="&#xe865;" d="M708 558c-23 0-41-18-41-41v-334c0-23 18-41 41-41 23 0 42 18 42 41v334c0 23-19 41-42 41z m-184-149l-173 99c-34 20-51 29-65 28-11-2-21-7-27-16-9-12-9-31-9-70v-200c0-39 0-58 9-69 6-9 16-15 27-17 14-1 31 8 65 28l173 100c34 19 51 29 56 42 4 10 4 22 0 32-5 13-22 23-56 43z" horiz-adv-x="1000" />

<glyph glyph-name="playback-settings-o" unicode="&#xe866;" d="M504 282c-12 6-20 19-20 33v243h-61v-243c0-20-17-36-37-36l-9 0v-210h-31v210l-10 0c-20 0-36 16-36 36v243h-19c-40 0-73-32-73-72v-345c0-40 33-72 73-72h345c40 0 72 32 72 72v135h-138v-207h-30v207h-4c-8 0-16 2-22 6z m55 142c-8 13-13 26-17 40 8 5 15 11 20 19 5 8 8 18 8 27 0 10-3 19-8 28-5 8-12 14-20 19 8 28 22 54 43 75 8-6 17-8 27-9 9 0 19 2 27 7 9 5 15 12 20 20 4 9 7 18 6 28 28 7 58 7 87 0-1-10 1-19 6-28 4-8 11-15 20-20 8-5 17-7 27-7 9 1 19 3 27 9 10-11 19-22 26-35 8-13 13-27 17-40-8-5-16-11-21-19-5-9-7-18-7-28 0-9 2-19 7-27 5-8 12-14 21-19-8-28-23-54-43-75-8 5-18 8-27 9-10 0-19-3-27-7-9-5-16-12-20-21-5-8-7-17-6-27-29-7-59-7-87 0 1 10-2 19-6 27-5 9-11 16-20 21-8 4-18 7-27 7-10-1-19-4-27-9-10 11-19 22-26 35z m98-3c18-11 32-28 38-48 9-1 18-1 26 0 7 20 21 37 39 48 19 10 40 14 61 9 5 7 10 15 13 23-14 16-22 36-22 57 0 22 8 43 22 58-3 8-8 15-13 23-21-5-42-1-61 9-18 11-32 28-39 48-8 1-17 1-26 0-6-20-20-37-38-48-19-10-41-14-61-9-5-8-10-15-13-23 14-16 22-36 22-58 0-21-9-42-22-57 3-8 8-16 13-23 20 5 42 1 61-9z m51 38c-13 0-27 5-36 15-10 9-15 23-15 36 0 14 5 27 15 37 9 10 23 15 36 15 14 0 27-5 37-15 10-10 15-23 15-37 0-13-5-27-15-36-10-10-23-15-37-15z m0 34c5 0 9 2 13 5 3 3 5 8 5 12 0 5-2 9-5 13-4 3-8 5-13 5-4 0-9-2-12-5-3-4-5-8-5-13 0-4 2-9 5-12 3-3 8-5 12-5z" horiz-adv-x="1000" />

<glyph glyph-name="playback-settings" unicode="&#xe867;" d="M504 282c-12 6-20 19-20 33v243h-61v-243c0-20-17-36-37-36l-9 0v-210h-31v210l-10 0c-20 0-36 16-36 36v243h-19c-40 0-73-32-73-72v-345c0-40 33-72 73-72h345c40 0 72 32 72 72v135h-138v-207h-30v207h-4c-8 0-16 2-22 6z m168 398c24 5 49 5 72 0 2-11 6-21 12-29 6-9 13-16 23-22 9-5 19-8 29-9 11-1 21 1 31 5 16-18 28-39 36-62-8-7-15-15-19-25-5-9-7-20-7-30 0-22 10-42 26-55-8-23-20-44-36-62-10 4-20 5-31 5-10-1-20-4-29-10-10-5-17-12-23-21-6-8-10-18-12-29-23-5-48-5-71 0-2 11-6 21-12 29-6 9-14 16-23 21-9 6-19 9-30 10-10 0-21-1-30-5-17 18-29 39-36 62 8 7 15 15 19 25 5 9 7 19 7 30 0 10-2 21-7 30-4 10-11 18-19 25 7 23 20 44 36 62 9-4 20-6 30-5 11 1 21 4 30 9 9 6 17 13 23 22 6 8 10 18 11 29z m36-225c14 0 28 6 38 16 9 10 15 23 15 37 0 14-6 27-15 37-10 10-24 16-38 16-14 0-27-6-37-16-10-10-15-23-15-37 0-14 5-27 15-37 10-10 23-16 37-16z" horiz-adv-x="1000" />

<glyph glyph-name="playback-uwd" unicode="&#xe868;" d="M442 457c19 34 29 51 42 56 10 5 22 5 32 0 13-5 23-22 43-56l99-172c20-34 29-51 28-65-2-11-7-21-16-28-12-9-31-9-70-9l-200 0c-39 0-58 0-69 9-9 7-15 17-17 28-1 14 8 31 28 65l100 172z" horiz-adv-x="1000" />

<glyph glyph-name="plus-circle-o" unicode="&#xe869;" d="M500 50c-165 0-300 135-300 300 0 165 135 300 300 300 165 0 300-135 300-300 0-165-135-300-300-300z m0 675c-49 0-98-10-143-28-46-19-87-47-122-82-70-70-110-165-110-265 0-99 40-195 110-265 35-35 76-63 122-81 45-19 94-29 143-29 100 0 195 40 265 110 71 70 110 166 110 265 0 49-10 98-28 144-19 45-47 86-82 121-35 35-76 63-121 82-46 18-95 28-144 28z m38-187h-75v-150h-150v-75h150v-150h75v150h150v75h-150v150z" horiz-adv-x="1000" />

<glyph glyph-name="plus-circle" unicode="&#xe86a;" d="M688 313h-150v-150h-75v150h-150v75h150v150h75v-150h150v-75z m-188 412c-49 0-98-10-143-28-46-19-87-47-122-82-70-70-110-165-110-265 0-99 40-195 110-265 35-35 76-63 122-81 45-19 94-29 143-29 100 0 195 40 265 110 71 70 110 166 110 265 0 49-10 98-28 144-19 45-47 86-82 121-35 35-76 63-121 82-46 18-95 28-144 28z" horiz-adv-x="1000" />

<glyph glyph-name="plus" unicode="&#xe86b;" d="M500 642c-29 0-53-24-53-53v-186h-186c-29 0-53-24-53-53 0-29 24-53 53-53h186v-186c0-29 24-53 53-53 29 0 53 24 53 53v186h186c29 0 53 24 53 53 0 29-24 53-53 53h-186v186c0 29-24 53-53 53z" horiz-adv-x="1000" />

<glyph glyph-name="question-o" unicode="&#xe86c;" d="M500-25c-207 0-375 168-375 375 0 207 168 375 375 375 207 0 375-168 375-375 0-207-168-375-375-375z m0 75c80 0 156 32 212 88 56 56 88 132 88 212 0 80-32 156-88 212-56 56-132 88-212 88-80 0-156-32-212-88-56-56-88-132-88-212 0-80 32-156 88-212 56-56 132-88 212-88z m-37 188h75v-75h-75v75z m75 61v-24h-75v56c0 10 3 20 11 27 7 7 16 11 26 11 11 0 21 3 30 9 9 5 16 13 21 23 4 10 6 20 5 31-1 10-6 20-12 29-7 8-16 14-26 17-10 4-21 4-32 2-10-3-19-8-27-16-7-8-12-17-14-28l-74 15c5 23 15 44 31 61 15 18 35 31 57 38 22 7 46 8 69 3 22-4 43-15 61-31 17-16 29-36 36-58 7-22 8-46 3-68-5-23-16-44-32-61-16-17-36-29-58-36z" horiz-adv-x="1000" />

<glyph glyph-name="question" unicode="&#xe86d;" d="M500-25c-207 0-375 168-375 375 0 207 168 375 375 375 207 0 375-168 375-375 0-207-168-375-375-375z m-37 263v-75h75v75h-75z m75 61c30 9 56 29 72 55 17 27 24 59 20 90-5 31-21 60-44 80-24 21-54 32-86 32-30 0-60-10-83-29-24-20-40-46-46-76l74-15c2 11 7 20 14 28 8 8 17 13 27 16 11 2 22 2 32-2 10-3 19-9 26-17 6-9 11-19 12-29 1-11-1-21-5-31-5-10-12-18-21-23-9-6-19-9-30-9-10 0-19-4-26-11-8-7-11-17-11-27v-56h75v24z" horiz-adv-x="1000" />

<glyph glyph-name="refresh-o" unicode="&#xe86e;" d="M255 634c68 59 155 91 245 91 207 0 375-168 375-375 0-80-25-154-68-215l-119 215h112c0 59-17 116-50 165-32 50-78 88-132 111-54 23-114 30-172 19-58-10-111-38-154-79l-37 68z m490-568c-68-59-155-91-245-91-207 0-375 168-375 375 0 80 25 154 68 215l120-215h-113c0-59 17-116 50-165 32-49 78-88 132-111 55-23 114-30 172-19 58 11 111 38 154 79l37-68z" horiz-adv-x="1000" />

<glyph glyph-name="refresh" unicode="&#xe86f;" d="M500-25c-207 0-375 168-375 375 0 207 168 375 375 375 207 0 375-168 375-375 0-207-168-375-375-375z m181 185c45 43 74 100 80 162 7 62-9 125-44 176-35 52-87 89-148 105-60 17-124 11-180-15l36-66c29 12 60 18 91 15 31-3 61-13 87-30 26-17 47-40 62-68 15-27 23-58 23-89h-113l106-190z m-70-48l-36 66c-29-12-60-17-91-15-31 3-61 13-87 30-26 17-47 41-62 68-15 27-22 58-22 89h112l-106 190c-45-43-73-100-80-162-7-62 9-125 44-176 35-52 88-89 148-105 60-17 124-11 180 15z" horiz-adv-x="1000" />

<glyph glyph-name="samples-sm" unicode="&#xe870;" d="M417 683c-23 0-42-18-42-41v-584c0-23 19-41 42-41 23 0 41 18 41 41v584c0 23-18 41-41 41z m-167-125c-23 0-42-18-42-41v-334c0-23 19-41 42-41 23 0 42 18 42 41v334c0 23-19 41-42 41z m292-41c0 23 18 41 41 41 23 0 42-18 42-41v-334c0-23-19-41-42-41-23 0-41 18-41 41v334z m208-42c-23 0-42-19-42-42v-166c0-23 19-42 42-42 23 0 42 19 42 42v166c0 23-19 42-42 42z" horiz-adv-x="1000" />

<glyph glyph-name="samples" unicode="&#xe871;" d="M208 496c0 34 28 62 63 62 34 0 62-28 62-62v-292c0-34-28-62-62-62-35 0-63 28-63 62v292z m334 42c0 34 28 62 62 62 35 0 63-28 63-62v-375c0-35-28-63-63-63-34 0-62 28-62 63v375z m166-84c0 35 28 63 63 63 34 0 62-28 62-63v-166c0-35-28-63-62-63-35 0-63 28-63 63v166z m-333 209c0 34 28 62 63 62 34 0 62-28 62-62v-625c0-35-28-63-62-63-35 0-63 28-63 63v625z" horiz-adv-x="1000" />

<glyph glyph-name="save-o" unicode="&#xe872;" d="M241 609v-518h518v414l-104 104h-414z m-37 74h481l138-137c6-7 10-16 10-26v-466c0-10-4-19-10-26-7-7-17-11-27-11h-592c-10 0-19 4-26 11-7 7-11 16-11 26v592c0 10 4 20 11 27 7 6 16 10 26 10z m296-555c-29 0-58 12-79 32-20 21-32 49-32 79 0 29 12 58 32 79 21 20 50 32 79 32 30 0 58-12 79-32 20-21 32-50 32-79 0-30-12-58-32-79-21-20-49-32-79-32z m-222 444h333v-148h-333v148z" horiz-adv-x="1000" />

<glyph glyph-name="save" unicode="&#xe873;" d="M685 683h-444c-41 0-74-33-74-74v-518c0-41 33-74 74-74h518c41 0 74 33 74 74v444l-148 148z m-185-592c-61 0-111 49-111 111 0 61 50 111 111 111 62 0 111-50 111-111 0-62-49-111-111-111z m111 370h-370v148h370v-148z" horiz-adv-x="1000" />

<glyph glyph-name="search" unicode="&#xe874;" d="M677 131c-50-33-109-52-173-52-172 0-312 140-312 313 0 172 140 312 312 312 173 0 313-140 313-312 0-79-29-151-77-206l148-148c16-16 16-43 0-59-17-16-43-16-59 0l-152 152z m-11 98c0 1 1 1 1 1 41 41 67 99 67 162 0 126-103 229-230 229-126 0-229-103-229-229 0-127 103-229 229-229 64 0 121 25 162 66z" horiz-adv-x="1000" />

<glyph glyph-name="settings-nut-o" unicode="&#xe875;" d="M182 174c-16 27-28 55-36 85 18 9 33 24 44 41 11 17 16 37 16 57 0 21-5 41-16 58-11 17-26 32-44 41 17 60 48 115 92 159 17-11 37-17 57-18 20 0 40 5 58 15 18 10 32 25 42 43 10 18 14 38 13 58 60 16 124 16 184 0-1-20 4-40 13-58 10-18 24-33 42-43 18-10 38-15 58-15 20 1 40 7 57 18 22-22 40-46 56-74 16-27 28-56 36-85-18-9-33-23-44-41-10-17-16-37-16-57 0-21 6-41 16-58 11-17 26-31 44-41-16-60-48-115-92-159-17 11-37 17-57 18-20 0-40-5-58-15-18-10-32-25-42-43-9-18-14-38-13-58-60-16-124-16-184 0 1 20-3 40-13 58-10 18-24 33-42 43-18 10-38 15-58 15-20-1-40-7-57-18-22 22-41 47-56 74z m208-7c39-23 68-59 82-102 19-2 37-2 56 0 14 43 43 79 82 102 39 22 86 30 130 20 10 15 20 31 27 48-30 34-46 77-46 123 0 46 17 89 46 122-7 17-17 33-27 48-44-10-91-2-130 20-39 23-68 59-82 102-19 2-37 2-55 0-15-43-44-79-83-102-39-22-85-30-130-20-10-15-20-31-27-48 30-34 47-77 47-122 0-47-18-90-47-123 7-17 17-33 27-48 45 10 91 2 130-20z m110 80c-29 0-57 12-78 33-21 20-32 48-32 78 0 29 11 57 32 77 21 21 49 33 78 33 29 0 57-12 78-33 21-20 32-48 32-77 0-30-11-58-32-78-21-21-49-33-78-33z m0 74c10 0 19 4 26 11 7 6 11 16 11 26 0 9-4 19-11 25-7 7-16 11-26 11-10 0-19-4-26-11-7-6-11-16-11-25 0-10 4-20 11-26 7-7 16-11 26-11z" horiz-adv-x="1000" />

<glyph glyph-name="settings-nut" unicode="&#xe876;" d="M428 676c48 10 96 10 144 0 3-21 11-41 23-58 11-17 27-32 45-42 19-11 39-17 60-19 21-1 42 2 62 9 32-36 56-78 71-124-16-13-29-30-39-49-9-19-13-39-13-61 0-44 20-83 52-109-15-46-39-88-71-124-20 7-41 10-62 9-21-2-41-8-60-19-18-10-33-25-45-42-12-17-20-37-23-58-47-10-96-10-144 0-3 21-11 41-22 58-12 17-28 32-46 42-19 11-39 17-60 19-21 1-42-2-62-9-32 36-56 78-71 124 16 13 29 30 39 49 9 19 13 39 13 61 0 21-4 41-13 60-10 19-23 36-39 49 15 46 39 88 71 124 20-7 41-10 62-9 21 2 42 8 60 19 18 10 34 25 45 42 12 17 20 37 23 58v0z m72-449c28 0 55 11 74 31 20 20 31 47 31 74 0 28-11 55-31 75-19 20-46 31-74 31-28 0-55-11-74-31-20-20-31-47-31-75 0-27 11-54 31-74 19-20 46-31 74-31z" horiz-adv-x="1000" />

<glyph glyph-name="settings-nuts" unicode="&#xe877;" d="M786 596c-24 5-48 5-72 0-1-10-5-20-11-29-6-8-14-16-23-21-9-5-19-8-30-9-10-1-21 1-31 5-16-18-28-40-36-63 9-6 15-14 20-24 4-9 7-20 7-30 0-11-3-21-7-31-5-9-11-18-20-24 8-23 20-44 36-62 10 4 21 5 31 4 11 0 21-4 30-9 9-5 17-12 23-21 6-9 10-19 11-29 24-5 48-5 72 0 2 10 5 20 11 29 6 9 14 16 23 21 9 5 20 9 30 9 10 1 21 0 31-4 16 18 28 39 36 62-16 13-27 32-27 55 0 10 3 21 7 30 5 9 11 18 20 24-8 23-20 45-36 63-10-4-20-6-31-5-10 1-21 4-30 9-9 5-17 13-23 21-6 9-10 19-11 29z m1-209c-10-9-23-15-37-15-14 0-27 6-37 15-10 10-16 24-16 38 0 14 6 27 16 37 10 10 23 15 37 15 14 0 27-5 37-15 10-10 16-23 16-37 0-14-6-28-16-38z m-406 139c-31 6-64 6-95 0-3-14-8-27-16-39-8-12-18-21-30-28-12-7-26-11-40-13-14-1-28 1-41 7-21-24-38-53-48-83 11-9 20-20 26-33 6-12 9-26 9-40 0-14-3-28-9-41-6-12-15-24-26-32 10-31 27-59 48-83 13 5 27 7 41 6 14-1 28-5 40-12 12-7 22-17 30-29 8-11 13-24 16-38 31-7 64-7 95 0 2 14 8 27 15 38 8 12 19 22 31 29 12 7 26 11 40 12 14 1 28-1 41-6 21 24 38 52 48 83-22 17-36 43-36 73 0 14 4 28 10 40 6 13 15 24 26 33-10 30-27 59-48 83-13-5-27-8-41-7-14 2-28 6-40 13-12 7-23 16-31 28-7 12-13 25-15 39z m2-279c-13-13-31-20-50-20-18 0-36 7-49 20-13 13-21 31-21 50 0 18 8 36 21 49 13 13 31 21 49 21 19 0 37-8 50-21 13-13 21-31 21-49 0-19-8-37-21-50z" horiz-adv-x="1000" />

<glyph glyph-name="settings-sliders" unicode="&#xe878;" d="M757 157v-88h-59v88h-59v89h177v-89h-59z m-472 0v-88h-59v88h-59v89h177v-89h-59z m177 355v88h59v-88h59v-89h-177v89h59z m0-148h59v-295h-59v295z m-236-59v295h59v-295h-59z m472 0v295h59v-295h-59z" horiz-adv-x="1000" />

<glyph glyph-name="shape-saw" unicode="&#xe879;" d="M769 554c14-8 23-22 23-37v-375c0-23-19-42-42-42-23 0-42 19-42 42v295l-476-330c-19-13-45-8-58 11-13 19-8 45 11 58l541 375c13 9 30 10 43 3z" horiz-adv-x="1000" />

<glyph glyph-name="shape-sine" unicode="&#xe87a;" d="M358 304c-12-31-25-61-36-80-23-37-48-58-70-69-11-6-21-9-28-11-4-1-7-1-10-1-2 0-3 0-4 0 0 0-1 0-1 0l-1 0 0 0 0 0 0 0c0 0 0 0 0 41l0-41c-23 0-42 19-41 42 0 22 18 40 39 41 1 0 4 1 7 3 8 3 22 13 38 39 7 12 17 35 31 69 0 1 1 2 1 3 13 31 29 69 46 104 18 36 40 74 66 102 26 29 61 54 105 54 44 0 79-25 105-54 26-28 48-66 66-102 17-35 33-73 46-104l1-3c14-34 24-57 31-69 16-26 31-36 38-40 4-2 7-3 7-3 0 0 0 0 0 0 22-1 39-19 39-42 0-23-18-41-41-41l0 41c0-41 0-41 0-41l0 0-1 0 0 0 0 0c-1 0-1 0-2 0-1 0-2 0-3 0-3 0-6 1-10 2-8 2-18 5-28 10-22 12-47 33-69 70-12 19-25 49-37 80l-2 3c-13 32-27 67-44 100-17 34-34 63-53 83-18 21-32 27-43 27-10 0-25-6-43-27-19-20-36-49-53-83-16-33-31-68-44-100l-2-3z" horiz-adv-x="1000" />

<glyph glyph-name="shape-square" unicode="&#xe87b;" d="M328 517c0 46 37 83 83 83h203c46 0 83-37 83-83v-292h95c23 0 41-19 41-42 0-23-18-41-41-41h-95c-46 0-83 37-83 83l0 292h-203v-292c0-46-37-83-83-83h-120c-23 0-41 18-41 41 0 23 18 42 41 42h120l0 292z" horiz-adv-x="1000" />

<glyph glyph-name="shape-triangle" unicode="&#xe87c;" d="M507 600c13 0 25-6 33-16l285-375c14-19 10-45-8-59-18-14-45-10-58 8l-253 333-265-334c-14-18-41-21-59-6-18 14-21 40-6 58l298 375c8 10 20 16 33 16z" horiz-adv-x="1000" />

<glyph glyph-name="shuffle" unicode="&#xe87d;" d="M833 480l-166-78v52h-70l-65-75-43 32 73 86c5 6 13 9 21 9h84v52l166-78z m0-260l-166-78v52h-84c-8 0-16 3-21 10l-214 250h-154c-15 0-27 12-27 26 0 15 12 26 27 26h167c9 0 17-3 22-9l214-251h70v52l166-78z m-450-16l73 85-44 33-64-76h-154c-15 0-27-12-27-26 0-15 12-26 27-26h167c9 0 17 3 22 10z" horiz-adv-x="1000" />

<glyph glyph-name="smartphone-o" unicode="&#xe87e;" d="M292 683v-666h416v666h-416z m-42 84h500c11 0 22-5 30-12 7-8 12-19 12-30v-750c0-11-5-22-12-30-8-7-19-12-30-12h-500c-11 0-22 5-29 12-8 8-13 19-13 30v750c0 11 5 22 13 30 7 7 18 12 29 12z m250-625c11 0 22-5 30-12 7-8 12-19 12-30 0-11-5-22-12-29-8-8-19-13-30-13-11 0-22 5-29 13-8 7-13 18-13 29 0 11 5 22 13 30 7 7 18 12 29 12z" horiz-adv-x="1000" />

<glyph glyph-name="smartphone" unicode="&#xe87f;" d="M250 767h500c11 0 22-5 30-12 7-8 12-19 12-30v-750c0-11-5-22-12-30-8-7-19-12-30-12h-500c-11 0-22 5-29 12-8 8-13 19-13 30v750c0 11 5 22 13 30 7 7 18 12 29 12z m250-625c-11 0-22-5-29-12-8-8-13-19-13-30 0-11 5-22 13-29 7-8 18-13 29-13 11 0 22 5 30 13 7 7 12 18 12 29 0 11-5 22-12 30-8 7-19 12-30 12z" horiz-adv-x="1000" />

<glyph glyph-name="sort-a-z" unicode="&#xe880;" d="M424 271h102l-122 287h-115l-122-287h102l16 41h123l16-41z m-115 105l37 97 38-97h-75z m390-34l130 160v56h-250v-71h127l-130-159v-57h257v71h-134z m-193-281c-4-3-8-3-12 0l-98 86c-6 6-2 16 6 16h196c8 0 12-10 6-16l-98-86z" horiz-adv-x="1000" />

<glyph glyph-name="sort-down" unicode="&#xe881;" d="M453 330v54h215v-54h-215z m0-164v55h107v-55h-107z m0 327v55h322v-55h-322z m-107-272h67l-94-96-94 96h67v354h54v-354z" horiz-adv-x="1000" />

<glyph glyph-name="sort-up" unicode="&#xe882;" d="M453 371v-55h215v55h-215z m0 163v-54h107v54h-107z m0-327v-55h322v55h-322z m-107 273h67l-94 95-94-95h67v-355h54v355z" horiz-adv-x="1000" />

<glyph glyph-name="sort-z-a" unicode="&#xe883;" d="M731 271h102l-122 287h-115l-122-287h102l16 41h123l16-41z m-114 105l37 97 37-97h-74z m-328-34l131 160v56h-251v-71h128l-130-159v-57h257v71h-135z m217-281c-4-3-8-3-12 0l-98 86c-6 6-2 16 6 16h196c8 0 12-10 6-16l-98-86z" horiz-adv-x="1000" />

<glyph glyph-name="speaker" unicode="&#xe884;" d="M567 613c0 19 18 34 36 27 30-11 58-27 84-48 36-29 63-64 83-105 20-43 30-89 30-137 0-48-10-94-30-137-20-41-47-76-83-105-26-21-54-37-84-48-18-6-36 8-36 27v11c0 13 9 25 21 30 24 9 46 23 65 40 25 23 45 50 59 81 14 32 21 65 21 101 0 36-7 69-21 101-14 31-34 58-59 81-19 17-41 31-65 40-12 5-21 17-21 30v11z m84-263c0-30-8-57-23-82-6-10-13-19-22-28-15-16-39-2-39 20v180c0 22 24 36 39 20 9-8 16-18 22-28 15-24 23-52 23-82z m-451 73c0 17 13 30 29 30h91c8 0 16 3 21 9l108 111c19 19 51 6 51-21v-404c0-26-32-40-51-21l-108 111c-5 6-13 9-21 9h-91c-16 0-29 13-29 30v146z" horiz-adv-x="1000" />

<glyph glyph-name="spinner" unicode="&#xe885;" d="M786 352c28 0 51-23 47-50-7-49-25-95-53-136-37-55-89-98-150-124-61-25-129-32-194-19-65 13-124 45-171 92-47 47-79 106-92 171-13 65-6 133 19 194 26 61 69 113 124 150 41 28 87 46 136 53 27 4 50-19 50-47 0-27-23-49-50-55-29-6-56-18-81-34-38-26-68-63-86-106-18-42-22-90-13-135 9-46 31-87 64-120 33-33 74-55 120-64 45-9 93-5 135 13 43 18 80 48 106 86 16 25 28 52 34 81 6 27 28 50 55 50z" horiz-adv-x="1000" />

<glyph glyph-name="star-o" unicode="&#xe886;" d="M500 683c15 0 29-8 35-21l82-164 183-26c15-2 27-12 31-26 5-14 1-30-9-40l-133-127 31-180c3-15-3-29-15-38-12-9-28-10-41-3l-164 85-163-85c-14-7-30-6-42 3-12 9-18 23-15 38l31 180-132 127c-11 10-15 26-10 40 4 14 16 24 31 26l183 26 82 164c6 13 20 21 35 21z m0-126l-56-111c-5-12-16-20-29-21l-125-18 90-87c10-9 14-22 12-34l-22-123 112 58c11 6 25 6 36 0l112-58-22 123c-2 12 2 25 12 34l90 87-125 18c-13 1-24 9-29 21l-56 111z" horiz-adv-x="1000" />

<glyph glyph-name="star" unicode="&#xe887;" d="M533 663c-6 12-19 20-33 20-14 0-27-8-33-20l-83-166-186-26c-14-2-25-12-30-26-4-13 0-28 10-38l134-128-32-182c-2-14 4-28 15-36 11-8 26-10 39-3l166 86 166-86c13-7 28-5 39 3 11 8 17 22 15 36l-32 182 134 128c10 10 14 25 10 38-5 14-16 24-30 26l-186 26-83 166z" horiz-adv-x="1000" />

<glyph glyph-name="stop" unicode="&#xe888;" d="M250 500c0 55 45 100 100 100h300c55 0 100-45 100-100v-300c0-55-45-100-100-100h-300c-55 0-100 45-100 100v300z" horiz-adv-x="1000" />

<glyph glyph-name="switch" unicode="&#xe889;" d="M467 683c-19 0-34-15-34-33v-267c0-18 15-33 34-33h66c19 0 34 15 34 33v267c0 18-15 33-34 33h-66z m-100-27c-32-14-61-32-86-55-70-61-114-151-114-251 0-184 149-333 333-333 184 0 333 149 333 333 0 85-32 163-85 222-9 11-19 20-29 29l0 0c-25 23-54 41-86 55v-157c39-34 64-83 67-138 0-4 0-7 0-11 0-110-89-200-200-200-110 0-200 90-200 200 0 59 26 113 67 149v157z" horiz-adv-x="1000" />

<glyph glyph-name="trash-o" unicode="&#xe88a;" d="M688 575h187v-75h-75v-487c0-10-4-20-11-27-7-7-17-11-26-11h-525c-10 0-20 4-27 11-7 7-11 17-11 27v487h-75v75h188v113c0 9 4 19 11 26 7 7 16 11 26 11h300c10 0 20-4 27-11 7-7 11-17 11-26v-113z m37-75h-450v-450h450v450z m-172-225l66-66-53-53-66 66-66-66-53 53 66 66-66 66 53 53 66-66 66 66 53-53-66-66z m-165 375v-75h225v75h-225z" horiz-adv-x="1000" />

<glyph glyph-name="trash" unicode="&#xe88b;" d="M313 575v113c0 9 4 19 11 26 7 7 16 11 26 11h300c10 0 20-4 27-11 7-7 11-17 11-26v-113h187v-75h-75v-487c0-10-4-20-11-27-7-7-17-11-26-11h-525c-10 0-20 4-27 11-7 7-11 17-11 27v487h-75v75h188z m240-300l66 66-53 53-66-66-66 66-53-53 66-66-66-66 53-53 66 66 66-66 53 53-66 66z m-165 375v-75h225v75h-225z" horiz-adv-x="1000" />

<glyph glyph-name="twitter" unicode="&#xe88c;" d="M875 531c-27-12-55-20-83-23 30 18 53 47 63 81-28-17-59-29-92-36-22 24-51 40-82 45-32 5-64 0-93-15-28-16-50-40-63-70-14-29-17-62-9-94-58 3-115 18-166 45-52 26-97 63-134 109-13-23-20-48-20-74 0-51 26-96 65-123-23 1-46 7-66 19v-2c0-34 12-67 33-93 21-27 51-45 84-51-22-6-44-7-66-3 9-29 27-55 52-73 24-18 54-29 84-29-30-24-65-42-102-52-37-11-75-14-113-9 66-43 143-66 222-66 268 0 414 224 414 419 0 6 0 12 0 19 28 20 53 46 72 76l0 0z" horiz-adv-x="1000" />

<glyph glyph-name="unlock-o" unicode="&#xe88d;" d="M342 417h433c9 0 17-4 24-10 6-6 9-15 9-24v-333c0-9-3-17-9-24-7-6-15-9-24-9h-533c-9 0-18 3-24 9-6 7-10 15-10 24v333c0 9 4 18 10 24 6 6 15 10 24 10h33v33c0 53 18 104 50 145 33 41 79 70 130 82 51 12 105 7 152-16 48-22 87-60 110-107l-60-29c-16 33-44 60-78 76-34 16-72 20-109 11-36-8-69-29-92-59-24-29-36-65-36-103v-33z m-67-67v-267h467v267h-467z m167-100h133v-67h-133v67z" horiz-adv-x="1000" />

<glyph glyph-name="unlock" unicode="&#xe88e;" d="M342 417h433c9 0 17-4 24-10 6-6 9-15 9-24v-333c0-9-3-17-9-24-7-6-15-9-24-9h-533c-9 0-18 3-24 9-6 7-10 15-10 24v333c0 9 4 18 10 24 6 6 15 10 24 10h33v33c0 53 18 104 50 145 33 41 79 70 130 82 51 12 105 7 152-16 48-22 87-60 110-107l-60-29c-16 33-44 60-78 76-34 16-72 20-109 11-36-8-69-29-92-59-24-29-36-65-36-103v-33z m100-167v-67h133v67h-133z" horiz-adv-x="1000" />

<glyph glyph-name="upload-cloud-o" unicode="&#xe88f;" d="M125 257c0 38 10 75 28 108 18 33 45 60 76 80 9 66 41 127 91 170 50 44 114 68 180 68 66 0 130-24 180-68 50-43 82-104 91-170 39-24 70-61 88-104 17-43 21-91 10-136-11-46-37-86-72-117-36-30-80-48-127-52l-340 0c-115 9-205 105-205 221z m540-153c33 3 63 15 88 36 24 21 42 49 50 81 7 31 5 64-7 94-13 30-34 55-62 72l-27 18-4 32c-7 49-31 94-68 127-37 33-85 51-135 51-50 0-98-18-135-51-37-33-62-78-68-127l-4-32-27-18c-28-17-49-42-61-72-13-30-15-63-7-94 7-32 25-60 49-81 25-21 56-33 88-36l6 0h318l6 0z m-131 204v-136h-68v136h-102l136 171 136-171h-102z" horiz-adv-x="1000" />

<glyph glyph-name="upload-cloud" unicode="&#xe890;" d="M330 36c-47 4-91 22-127 52-35 31-61 71-72 117-11 45-7 93 10 136 18 43 49 80 89 104 8 66 40 127 90 170 50 44 114 68 180 68 66 0 130-24 180-68 50-43 82-104 91-170 39-24 70-61 88-104 17-43 21-91 10-136-11-46-37-86-72-117-36-30-80-48-127-52v0h-340v0z m204 272h102l-136 171-136-171h102v-136h68v136z" horiz-adv-x="1000" />

<glyph glyph-name="user-o" unicode="&#xe891;" d="M758 17h-64v63c0 25-10 50-27 68-18 17-42 27-68 27h-190c-25 0-50-10-68-27-17-18-27-43-27-68v-63h-64v63c0 42 17 83 47 112 29 30 70 47 112 47h190c42 0 83-17 112-47 30-29 47-70 47-112v-63z m-254 285c-25 0-50 5-73 15-23 10-44 24-62 41-17 18-31 39-41 62-10 23-14 48-14 73 0 25 4 50 14 73 10 23 24 44 41 62 18 17 39 31 62 41 23 9 48 14 73 14 51 0 99-20 135-55 35-36 55-85 55-135 0-51-20-99-55-135-36-35-84-56-135-56z m0 64c34 0 66 13 90 37 24 24 37 56 37 90 0 34-13 66-37 90-24 24-56 37-90 37-34 0-66-13-90-37-24-24-37-56-37-90 0-34 13-66 37-90 24-24 56-37 90-37z" horiz-adv-x="1000" />

<glyph glyph-name="user" unicode="&#xe892;" d="M758 17h-508v63c0 42 17 83 47 112 29 30 70 47 112 47h190c42 0 83-17 112-47 30-29 47-70 47-112v-63z m-254 285c-25 0-50 5-73 15-23 10-44 24-62 41-17 18-31 39-41 62-10 23-14 48-14 73 0 25 4 50 14 73 10 23 24 44 41 62 18 17 39 31 62 41 23 9 48 14 73 14 51 0 99-20 135-55 35-36 55-85 55-135 0-51-20-99-55-135-36-35-84-56-135-56z" horiz-adv-x="1000" />

<glyph glyph-name="wifi-off" unicode="&#xe893;" d="M513 75c30 0 57-11 79-28l-79-97-79 97c23 18 50 28 79 28z m-383 692l737-737-59-59-154 154-10-13c-37 30-83 46-131 46-48 0-94-16-131-46l-78 97c54 44 122 70 192 74l-74 74c-62-14-121-43-171-83l-78 97c44 37 95 65 149 86l-64 64c-49-23-96-51-138-85l-78 97c38 31 79 58 123 81l-94 94 59 59z m553-437l-161 161-9 0c129 0 247-45 340-120l-78-97c-28 23-59 41-92 56v0z m-170 370c179 0 343-63 471-167l-78-97c-111 90-250 139-393 139-24 0-47-2-70-4l-108 107c57 14 117 22 178 22z" horiz-adv-x="1000" />

<glyph glyph-name="wifi" unicode="&#xe894;" d="M42 559c133 107 299 166 471 166 179 0 342-62 471-166l-78-98c-111 90-250 139-393 139-149 0-285-52-393-139l-78 98z m131-163c96 78 216 121 340 121 129 0 247-45 340-121l-78-97c-74 60-167 93-262 93-99 0-190-35-262-93l-78 97v0z m131-162c59 48 133 74 209 74 79 0 152-27 209-74l-78-97c-37 30-83 46-131 46-48 0-94-16-131-46l-78 97v0z m130-162c23 18 50 28 79 28 30 0 57-10 79-28l-79-97-79 97v0z" horiz-adv-x="1000" />

<glyph glyph-name="windows" unicode="&#xe895;" d="M125 619l307 41 0-294-307-2 0 255z m306-287l1-295-307 42 0 255 306-2z m38 334l406 59v-356l-406-3v300z m406-337l0-354-406 57-1 298 407-1z" horiz-adv-x="1000" />

<glyph glyph-name="youtube" unicode="&#xe896;" d="M858 551c17-65 17-201 17-201 0 0 0-136-17-201-10-35-37-64-73-73-64-18-285-18-285-18 0 0-221 0-285 18-36 9-63 38-73 73-17 65-17 201-17 201 0 0 0 136 17 201 10 36 38 64 73 73 64 18 285 18 285 18 0 0 221 0 285-18 36-9 63-38 73-73z m-433-329l225 128-225 128v-256z" horiz-adv-x="1000" />
</font>
</defs>
</svg>
